<?xml version="1.0" encoding="UTF-8" standalone="no"?>
<svg
   xmlns:dc="http://purl.org/dc/elements/1.1/"
   xmlns:cc="http://creativecommons.org/ns#"
   xmlns:rdf="http://www.w3.org/1999/02/22-rdf-syntax-ns#"
   xmlns:svg="http://www.w3.org/2000/svg"
   xmlns="http://www.w3.org/2000/svg"
   xmlns:sodipodi="http://sodipodi.sourceforge.net/DTD/sodipodi-0.dtd"
   xmlns:inkscape="http://www.inkscape.org/namespaces/inkscape"
   version="1.1"
   viewBox="0 0 678.34235 364.89581"
   stroke-miterlimit="10"
   id="svg197"
   sodipodi:docname="Hustle_Step1.svg"
   width="678.34235"
   height="364.89581"
   style="fill:none;stroke:none;stroke-linecap:square;stroke-miterlimit:10"
   inkscape:version="0.92.2 (5c3e80d, 2017-08-06)">
  <metadata
     id="metadata203">
    <rdf:RDF>
      <cc:Work
         rdf:about="">
        <dc:format>image/svg+xml</dc:format>
        <dc:type
           rdf:resource="http://purl.org/dc/dcmitype/StillImage" />
        <dc:title></dc:title>
      </cc:Work>
    </rdf:RDF>
  </metadata>
  <defs
     id="defs201" />
  <sodipodi:namedview
     pagecolor="#ffffff"
     bordercolor="#666666"
     borderopacity="1"
     objecttolerance="10"
     gridtolerance="10"
     guidetolerance="10"
     inkscape:pageopacity="0"
     inkscape:pageshadow="2"
     inkscape:window-width="2560"
     inkscape:window-height="1417"
     id="namedview199"
     showgrid="false"
     inkscape:zoom="1.1833333"
     inkscape:cx="342.7472"
     inkscape:cy="-72.461766"
     inkscape:window-x="1912"
     inkscape:window-y="-8"
     inkscape:window-maximized="1"
     inkscape:current-layer="g195"
     fit-margin-top="0"
     fit-margin-left="0"
     fit-margin-right="0"
     fit-margin-bottom="0" />
  <clipPath
     id="p.0">
    <path
       d="M 0,0 H 960 V 720 H 0 Z"
       id="path2"
       inkscape:connector-curvature="0"
       style="clip-rule:nonzero" />
  </clipPath>
  <g
     clip-path="url(#p.0)"
     id="g195"
     transform="translate(-14.823222,-4.6854824)">
    <path
       d="M 0,0 H 960 V 720 H 0 Z"
       id="path5"
       inkscape:connector-curvature="0"
       style="fill:#000000;fill-opacity:0;fill-rule:evenodd" />
    <path
       d="m 108.36468,44.753727 v 0 c 0,-4.690796 3.80264,-8.493439 8.49344,-8.493439 h 211.17062 c 2.25259,0 4.41293,0.894837 6.00577,2.487671 1.5928,1.592827 2.48767,3.753167 2.48767,6.005768 v 33.973747 c 0,4.690796 -3.80264,8.493439 -8.49344,8.493439 H 116.85812 v 0 c -4.6908,0 -8.49344,-3.802642 -8.49344,-8.493439 z"
       id="path7"
       inkscape:connector-curvature="0"
       style="fill:#cfe2f3;fill-rule:evenodd" />
    <path
       d="m 108.36468,44.753727 v 0 c 0,-4.690796 3.80264,-8.493439 8.49344,-8.493439 h 211.17062 c 2.25259,0 4.41293,0.894837 6.00577,2.487671 1.5928,1.592827 2.48767,3.753167 2.48767,6.005768 v 33.973747 c 0,4.690796 -3.80264,8.493439 -8.49344,8.493439 H 116.85812 v 0 c -4.6908,0 -8.49344,-3.802642 -8.49344,-8.493439 z"
       id="path9"
       inkscape:connector-curvature="0"
       style="fill-rule:evenodd;stroke:#000000;stroke-width:1;stroke-linecap:butt;stroke-linejoin:round" />
    <path
       d="m 124.36468,46.701227 h 28.44094 v 30.078735 h -28.44094 z"
       id="path11"
       inkscape:connector-curvature="0"
       style="fill:#b6d7a8;fill-rule:evenodd" />
    <path
       d="m 124.36468,46.701227 h 28.44094 v 30.078735 h -28.44094 z"
       id="path13"
       inkscape:connector-curvature="0"
       style="fill-rule:evenodd;stroke:#000000;stroke-width:1;stroke-linecap:butt;stroke-linejoin:round" />
    <path
       d="m 134.45234,64.863717 1.59375,-0.21875 q 0.0781,1.53125 0.57813,2.109375 0.51562,0.5625 1.42187,0.5625 0.65625,0 1.14063,-0.296875 0.48437,-0.3125 0.65625,-0.828125 0.1875,-0.53125 0.1875,-1.6875 v -9.203125 h 1.76562 v 9.109375 q 0,1.671875 -0.40625,2.59375 -0.40625,0.921875 -1.28125,1.40625 -0.875,0.484375 -2.0625,0.484375 -1.75,0 -2.6875,-1.015625 -0.9375,-1.015625 -0.90625,-3.015625 z"
       id="path15"
       inkscape:connector-curvature="0"
       style="fill:#000000;fill-rule:nonzero" />
    <path
       d="m 164.66127,46.701227 h 28.44095 v 30.078735 h -28.44095 z"
       id="path17"
       inkscape:connector-curvature="0"
       style="fill:#b6d7a8;fill-rule:evenodd" />
    <path
       d="m 164.66127,46.701227 h 28.44095 v 30.078735 h -28.44095 z"
       id="path19"
       inkscape:connector-curvature="0"
       style="fill-rule:evenodd;stroke:#000000;stroke-width:1;stroke-linecap:butt;stroke-linejoin:round" />
    <path
       d="m 174.74893,64.863717 1.59375,-0.21875 q 0.0781,1.53125 0.57813,2.109375 0.51562,0.5625 1.42187,0.5625 0.65625,0 1.14063,-0.296875 0.48437,-0.3125 0.65625,-0.828125 0.1875,-0.53125 0.1875,-1.6875 v -9.203125 h 1.76562 v 9.109375 q 0,1.671875 -0.40625,2.59375 -0.40625,0.921875 -1.28125,1.40625 -0.875,0.484375 -2.0625,0.484375 -1.75,0 -2.6875,-1.015625 -0.9375,-1.015625 -0.90625,-3.015625 z"
       id="path21"
       inkscape:connector-curvature="0"
       style="fill:#000000;fill-rule:nonzero" />
    <path
       d="m 204.95786,46.701227 h 28.44095 v 30.078735 h -28.44095 z"
       id="path23"
       inkscape:connector-curvature="0"
       style="fill:#b6d7a8;fill-rule:evenodd" />
    <path
       d="m 204.95786,46.701227 h 28.44095 v 30.078735 h -28.44095 z"
       id="path25"
       inkscape:connector-curvature="0"
       style="fill-rule:evenodd;stroke:#000000;stroke-width:1;stroke-linecap:butt;stroke-linejoin:round" />
    <path
       d="m 215.04552,64.863717 1.59375,-0.21875 q 0.0781,1.53125 0.57813,2.109375 0.51562,0.5625 1.42187,0.5625 0.65625,0 1.14063,-0.296875 0.48437,-0.3125 0.65625,-0.828125 0.1875,-0.53125 0.1875,-1.6875 v -9.203125 h 1.76562 v 9.109375 q 0,1.671875 -0.40625,2.59375 -0.40625,0.921875 -1.28125,1.40625 -0.875,0.484375 -2.0625,0.484375 -1.75,0 -2.6875,-1.015625 -0.9375,-1.015625 -0.90625,-3.015625 z"
       id="path27"
       inkscape:connector-curvature="0"
       style="fill:#000000;fill-rule:nonzero" />
    <path
       d="m 245.25444,46.701227 h 28.44095 v 30.078735 h -28.44095 z"
       id="path29"
       inkscape:connector-curvature="0"
       style="fill:#b6d7a8;fill-rule:evenodd" />
    <path
       d="m 245.25444,46.701227 h 28.44095 v 30.078735 h -28.44095 z"
       id="path31"
       inkscape:connector-curvature="0"
       style="fill-rule:evenodd;stroke:#000000;stroke-width:1;stroke-linecap:butt;stroke-linejoin:round" />
    <path
       d="m 255.3421,64.863717 1.59375,-0.21875 q 0.0781,1.53125 0.57813,2.109375 0.51564,0.5625 1.42189,0.5625 0.65625,0 1.14062,-0.296875 0.48438,-0.3125 0.65625,-0.828125 0.1875,-0.53125 0.1875,-1.6875 v -9.203125 h 1.76563 v 9.109375 q 0,1.671875 -0.40625,2.59375 -0.40625,0.921875 -1.28125,1.40625 -0.875,0.484375 -2.0625,0.484375 -1.75002,0 -2.68752,-1.015625 -0.9375,-1.015625 -0.90625,-3.015625 z"
       id="path33"
       inkscape:connector-curvature="0"
       style="fill:#000000;fill-rule:nonzero" />
    <path
       d="m 285.55104,46.701227 h 28.44095 v 30.078735 h -28.44095 z"
       id="path35"
       inkscape:connector-curvature="0"
       style="fill:#6aa84f;fill-rule:evenodd" />
    <path
       d="m 285.55104,46.701227 h 28.44095 v 30.078735 h -28.44095 z"
       id="path37"
       inkscape:connector-curvature="0"
       style="fill-rule:evenodd;stroke:#000000;stroke-width:1;stroke-linecap:butt;stroke-linejoin:round" />
    <path
       d="m 295.63869,64.863717 1.59375,-0.21875 q 0.0781,1.53125 0.57813,2.109375 0.51562,0.5625 1.42187,0.5625 0.65625,0 1.14063,-0.296875 0.48437,-0.3125 0.65625,-0.828125 0.1875,-0.53125 0.1875,-1.6875 v -9.203125 h 1.76562 v 9.109375 q 0,1.671875 -0.40625,2.59375 -0.40625,0.921875 -1.28125,1.40625 -0.875,0.484375 -2.0625,0.484375 -1.75,0 -2.6875,-1.015625 -0.9375,-1.015625 -0.90625,-3.015625 z"
       id="path39"
       inkscape:connector-curvature="0"
       style="fill:#000000;fill-rule:nonzero" />
    <path
       d="M 103.03397,4.6854824 H 259.47492 V 46.701229 H 103.03397 Z"
       id="path41"
       inkscape:connector-curvature="0"
       style="fill:#000000;fill-opacity:0;fill-rule:evenodd" />
    <path
       d="M 113.56522,31.605477 V 18.246102 h 9.01563 v 1.578125 h -7.25 v 4.140625 h 6.26562 v 1.578125 h -6.26562 v 6.0625 z m 11.08349,0 v -9.671875 h 1.46875 v 1.46875 q 0.5625,-1.03125 1.03125,-1.359375 0.48437,-0.328125 1.0625,-0.328125 0.82812,0 1.68749,0.53125 l -0.56249,1.515625 q -0.60938,-0.359375 -1.20313,-0.359375 -0.54687,0 -0.96875,0.328125 -0.42187,0.328125 -0.60937,0.890625 -0.28125,0.875 -0.28125,1.921875 v 5.0625 z m 12.85329,-3.109375 1.6875,0.203125 q -0.40625,1.484375 -1.48438,2.3125 -1.07812,0.8125 -2.76562,0.8125 -2.125,0 -3.375,-1.296875 -1.23438,-1.3125 -1.23438,-3.671875 0,-2.453125 1.25,-3.796875 1.26563,-1.34375 3.26563,-1.34375 1.9375,0 3.15625,1.328125 1.23437,1.3125 1.23437,3.703125 0,0.15625 0,0.4375 h -7.21875 q 0.0937,1.59375 0.90625,2.453125 0.8125,0.84375 2.01563,0.84375 0.90625,0 1.54687,-0.46875 0.64063,-0.484375 1.01563,-1.515625 z m -5.39063,-2.65625 h 5.40625 q -0.10937,-1.21875 -0.625,-1.828125 -0.78125,-0.953125 -2.03125,-0.953125 -1.125,0 -1.90625,0.765625 -0.76562,0.75 -0.84375,2.015625 z m 15.76635,2.65625 1.6875,0.203125 q -0.40625,1.484375 -1.48438,2.3125 -1.07812,0.8125 -2.76562,0.8125 -2.125,0 -3.375,-1.296875 -1.23438,-1.3125 -1.23438,-3.671875 0,-2.453125 1.25,-3.796875 1.26563,-1.34375 3.26563,-1.34375 1.9375,0 3.15625,1.328125 1.23437,1.3125 1.23437,3.703125 0,0.15625 0,0.4375 h -7.21875 q 0.0937,1.59375 0.90625,2.453125 0.8125,0.84375 2.01563,0.84375 0.90625,0 1.54687,-0.46875 0.64063,-0.484375 1.01563,-1.515625 z m -5.39063,-2.65625 h 5.40625 q -0.10937,-1.21875 -0.625,-1.828125 -0.78125,-0.953125 -2.03125,-0.953125 -1.125,0 -1.90625,0.765625 -0.76562,0.75 -0.84375,2.015625 z m 13.62152,1.96875 1.59375,-0.21875 q 0.0781,1.53125 0.57813,2.109375 0.51562,0.5625 1.42187,0.5625 0.65625,0 1.14063,-0.296875 0.48437,-0.3125 0.65625,-0.828125 0.1875,-0.53125 0.1875,-1.6875 v -9.203125 h 1.76562 v 9.109375 q 0,1.671875 -0.40625,2.59375 -0.40625,0.921875 -1.28125,1.40625 -0.875,0.484375 -2.0625,0.484375 -1.75,0 -2.6875,-1.015625 -0.9375,-1.015625 -0.90625,-3.015625 z m 9.42188,-1.046875 q 0,-2.6875 1.48437,-3.96875 1.25,-1.078125 3.04688,-1.078125 2,0 3.26562,1.3125 1.26563,1.296875 1.26563,3.609375 0,1.859375 -0.5625,2.9375 -0.5625,1.0625 -1.64063,1.65625 -1.0625,0.59375 -2.32812,0.59375 -2.03125,0 -3.28125,-1.296875 -1.25,-1.3125 -1.25,-3.765625 z m 1.6875,0 q 0,1.859375 0.79687,2.796875 0.8125,0.921875 2.04688,0.921875 1.21875,0 2.03125,-0.921875 0.8125,-0.9375 0.8125,-2.84375 0,-1.796875 -0.8125,-2.71875 -0.8125,-0.921875 -2.03125,-0.921875 -1.23438,0 -2.04688,0.921875 -0.79687,0.90625 -0.79687,2.765625 z m 10.79759,4.84375 h -1.51563 V 18.246102 h 1.64063 v 4.765625 q 1.04687,-1.296875 2.65625,-1.296875 0.89062,0 1.6875,0.359375 0.79687,0.359375 1.3125,1.015625 0.51562,0.640625 0.79687,1.5625 0.29688,0.921875 0.29688,1.96875 0,2.484375 -1.23438,3.84375 -1.21875,1.359375 -2.95312,1.359375 -1.70313,0 -2.6875,-1.4375 z m -0.0156,-4.90625 q 0,1.734375 0.48438,2.515625 0.76562,1.265625 2.09375,1.265625 1.07812,0 1.85937,-0.9375 0.78125,-0.9375 0.78125,-2.78125 0,-1.890625 -0.75,-2.796875 -0.75,-0.90625 -1.82812,-0.90625 -1.0625,0 -1.85938,0.9375 -0.78125,0.9375 -0.78125,2.703125 z m 24.40278,3.46875 q 1.23437,0.859375 2.26562,1.25 l -0.51562,1.21875 q -1.4375,-0.515625 -2.875,-1.625 -1.48438,0.828125 -3.28125,0.828125 -1.8125,0 -3.29688,-0.875 -1.46875,-0.875 -2.26562,-2.453125 -0.79688,-1.59375 -0.79688,-3.578125 0,-1.984375 0.79688,-3.59375 0.8125,-1.625 2.28125,-2.46875 1.48437,-0.859375 3.32812,-0.859375 1.84375,0 3.32813,0.890625 1.48437,0.875 2.26562,2.453125 0.78125,1.578125 0.78125,3.5625 0,1.65625 -0.5,2.96875 -0.5,1.3125 -1.51562,2.28125 z m -3.89063,-2.25 q 1.53125,0.421875 2.51563,1.28125 1.5625,-1.421875 1.5625,-4.28125 0,-1.625 -0.54688,-2.828125 -0.54687,-1.21875 -1.60937,-1.875 -1.0625,-0.671875 -2.39063,-0.671875 -1.96875,0 -3.28125,1.359375 -1.29687,1.34375 -1.29687,4.03125 0,2.59375 1.28125,4 1.29687,1.390625 3.29687,1.390625 0.95313,0 1.78125,-0.359375 -0.82812,-0.53125 -1.75,-0.765625 z m 14.40205,3.6875 v -1.421875 q -1.125,1.640625 -3.0625,1.640625 -0.85937,0 -1.60937,-0.328125 -0.73438,-0.328125 -1.09375,-0.828125 -0.35938,-0.5 -0.5,-1.21875 -0.10938,-0.46875 -0.10938,-1.53125 v -5.984375 h 1.64063 v 5.359375 q 0,1.28125 0.10937,1.734375 0.15625,0.640625 0.65625,1.015625 0.5,0.375 1.23438,0.375 0.73437,0 1.375,-0.375 0.65625,-0.390625 0.92187,-1.03125 0.26563,-0.65625 0.26563,-1.890625 v -5.1875 h 1.64062 v 9.671875 z m 10.6726,-3.109375 1.6875,0.203125 q -0.40625,1.484375 -1.48438,2.3125 -1.07812,0.8125 -2.76562,0.8125 -2.125,0 -3.375,-1.296875 -1.23438,-1.3125 -1.23438,-3.671875 0,-2.453125 1.25,-3.796875 1.26563,-1.34375 3.26563,-1.34375 1.9375,0 3.15625,1.328125 1.23437,1.3125 1.23437,3.703125 0,0.15625 0,0.4375 h -7.21875 q 0.0937,1.59375 0.90625,2.453125 0.8125,0.84375 2.01563,0.84375 0.90625,0 1.54687,-0.46875 0.64063,-0.484375 1.01563,-1.515625 z m -5.39063,-2.65625 h 5.40625 q -0.10937,-1.21875 -0.625,-1.828125 -0.78125,-0.953125 -2.03125,-0.953125 -1.125,0 -1.90625,0.765625 -0.76562,0.75 -0.84375,2.015625 z m 15.46947,5.765625 v -1.421875 q -1.125,1.640625 -3.0625,1.640625 -0.85938,0 -1.60938,-0.328125 -0.73437,-0.328125 -1.09375,-0.828125 -0.35937,-0.5 -0.5,-1.21875 -0.10937,-0.46875 -0.10937,-1.53125 v -5.984375 h 1.64062 v 5.359375 q 0,1.28125 0.10938,1.734375 0.15625,0.640625 0.65625,1.015625 0.5,0.375 1.23437,0.375 0.73438,0 1.375,-0.375 0.65625,-0.390625 0.92188,-1.03125 0.26562,-0.65625 0.26562,-1.890625 v -5.1875 h 1.64063 v 9.671875 z m 10.67259,-3.109375 1.6875,0.203125 q -0.40625,1.484375 -1.48437,2.3125 -1.07813,0.8125 -2.76563,0.8125 -2.125,0 -3.375,-1.296875 -1.23437,-1.3125 -1.23437,-3.671875 0,-2.453125 1.25,-3.796875 1.26562,-1.34375 3.26562,-1.34375 1.9375,0 3.15625,1.328125 1.23438,1.3125 1.23438,3.703125 0,0.15625 0,0.4375 h -7.21875 q 0.0937,1.59375 0.90625,2.453125 0.8125,0.84375 2.01562,0.84375 0.90625,0 1.54688,-0.46875 0.64062,-0.484375 1.01562,-1.515625 z m -5.39062,-2.65625 h 5.40625 q -0.10938,-1.21875 -0.625,-1.828125 -0.78125,-0.953125 -2.03125,-0.953125 -1.125,0 -1.90625,0.765625 -0.76563,0.75 -0.84375,2.015625 z"
       id="path43"
       inkscape:connector-curvature="0"
       style="fill:#000000;fill-rule:nonzero" />
    <path
       d="m 370.27674,48.310157 v 0 c 0,-4.690796 3.80264,-8.493439 8.49344,-8.493439 H 589.9408 c 2.25256,0 4.4129,0.894844 6.00574,2.487671 1.59283,1.592827 2.48767,3.753167 2.48767,6.005768 v 33.973747 c 0,4.690796 -3.80261,8.493439 -8.49341,8.493439 H 378.77018 v 0 c -4.6908,0 -8.49344,-3.802642 -8.49344,-8.493439 z"
       id="path45"
       inkscape:connector-curvature="0"
       style="fill:#cfe2f3;fill-rule:evenodd" />
    <path
       d="m 370.27674,48.310157 v 0 c 0,-4.690796 3.80264,-8.493439 8.49344,-8.493439 H 589.9408 c 2.25256,0 4.4129,0.894844 6.00574,2.487671 1.59283,1.592827 2.48767,3.753167 2.48767,6.005768 v 33.973747 c 0,4.690796 -3.80261,8.493439 -8.49341,8.493439 H 378.77018 v 0 c -4.6908,0 -8.49344,-3.802642 -8.49344,-8.493439 z"
       id="path47"
       inkscape:connector-curvature="0"
       style="fill-rule:evenodd;stroke:#000000;stroke-width:1;stroke-linecap:butt;stroke-linejoin:round" />
    <path
       d="M 364.94606,8.2419074 H 558.1429 V 50.257662 H 364.94606 Z"
       id="path49"
       inkscape:connector-curvature="0"
       style="fill:#000000;fill-opacity:0;fill-rule:evenodd" />
    <path
       d="M 375.47731,35.161907 V 21.802532 h 9.01563 v 1.578125 h -7.25 v 4.140625 h 6.26562 v 1.578125 h -6.26562 v 6.0625 z m 11.08347,0 v -9.671875 h 1.46875 v 1.46875 q 0.5625,-1.03125 1.03125,-1.359375 0.48437,-0.328125 1.0625,-0.328125 0.82812,0 1.6875,0.53125 l -0.5625,1.515625 q -0.60938,-0.359375 -1.20313,-0.359375 -0.54687,0 -0.96875,0.328125 -0.42187,0.328125 -0.60937,0.890625 -0.28125,0.875 -0.28125,1.921875 v 5.0625 z m 12.8533,-3.109375 1.6875,0.203125 q -0.40625,1.484375 -1.48438,2.3125 -1.07812,0.8125 -2.76562,0.8125 -2.125,0 -3.375,-1.296875 -1.23438,-1.3125 -1.23438,-3.671875 0,-2.453125 1.25,-3.796875 1.26563,-1.34375 3.26563,-1.34375 1.9375,0 3.15625,1.328125 1.23437,1.3125 1.23437,3.703125 0,0.15625 0,0.4375 h -7.21875 q 0.0937,1.59375 0.90625,2.453125 0.8125,0.84375 2.01563,0.84375 0.90625,0 1.54687,-0.46875 0.64063,-0.484375 1.01563,-1.515625 z m -5.39063,-2.65625 h 5.40625 q -0.10937,-1.21875 -0.625,-1.828125 -0.78125,-0.953125 -2.03125,-0.953125 -1.125,0 -1.90625,0.765625 -0.76562,0.75 -0.84375,2.015625 z m 15.76636,2.65625 1.6875,0.203125 q -0.40625,1.484375 -1.48437,2.3125 -1.07813,0.8125 -2.76563,0.8125 -2.125,0 -3.375,-1.296875 -1.23437,-1.3125 -1.23437,-3.671875 0,-2.453125 1.25,-3.796875 1.26562,-1.34375 3.26562,-1.34375 1.9375,0 3.15625,1.328125 1.23438,1.3125 1.23438,3.703125 0,0.15625 0,0.4375 h -7.21875 q 0.0937,1.59375 0.90625,2.453125 0.8125,0.84375 2.01562,0.84375 0.90625,0 1.54688,-0.46875 0.64062,-0.484375 1.01562,-1.515625 z m -5.39062,-2.65625 h 5.40625 q -0.10938,-1.21875 -0.625,-1.828125 -0.78125,-0.953125 -2.03125,-0.953125 -1.125,0 -1.90625,0.765625 -0.76563,0.75 -0.84375,2.015625 z m 14.62152,5.765625 V 21.802532 h 9.01562 v 1.578125 h -7.25 v 4.140625 h 6.26563 v 1.578125 h -6.26563 v 6.0625 z m 11.09909,-11.46875 v -1.890625 h 1.64062 v 1.890625 z m 0,11.46875 v -9.671875 h 1.64062 v 9.671875 z m 5.64483,0 h -1.51562 V 21.802532 h 1.64062 v 4.765625 q 1.04688,-1.296875 2.65625,-1.296875 0.89063,0 1.6875,0.359375 0.79688,0.359375 1.3125,1.015625 0.51563,0.640625 0.79688,1.5625 0.29687,0.921875 0.29687,1.96875 0,2.484375 -1.23437,3.84375 -1.21875,1.359375 -2.95313,1.359375 -1.70312,0 -2.6875,-1.4375 z m -0.0156,-4.90625 q 0,1.734375 0.48437,2.515625 0.76563,1.265625 2.09375,1.265625 1.07813,0 1.85938,-0.9375 0.78125,-0.9375 0.78125,-2.78125 0,-1.890625 -0.75,-2.796875 -0.75,-0.90625 -1.82813,-0.90625 -1.0625,0 -1.85937,0.9375 -0.78125,0.9375 -0.78125,2.703125 z m 15.51633,1.796875 1.6875,0.203125 q -0.40625,1.484375 -1.48438,2.3125 -1.07812,0.8125 -2.76562,0.8125 -2.125,0 -3.375,-1.296875 -1.23438,-1.3125 -1.23438,-3.671875 0,-2.453125 1.25,-3.796875 1.26563,-1.34375 3.26563,-1.34375 1.9375,0 3.15625,1.328125 1.23437,1.3125 1.23437,3.703125 0,0.15625 0,0.4375 h -7.21875 q 0.0937,1.59375 0.90625,2.453125 0.8125,0.84375 2.01563,0.84375 0.90625,0 1.54687,-0.46875 0.64063,-0.484375 1.01563,-1.515625 z m -5.39063,-2.65625 h 5.40625 q -0.10937,-1.21875 -0.625,-1.828125 -0.78125,-0.953125 -2.03125,-0.953125 -1.125,0 -1.90625,0.765625 -0.76562,0.75 -0.84375,2.015625 z m 9.12573,5.765625 v -9.671875 h 1.46875 v 1.46875 q 0.5625,-1.03125 1.03125,-1.359375 0.48438,-0.328125 1.0625,-0.328125 0.82813,0 1.6875,0.53125 l -0.5625,1.515625 q -0.60937,-0.359375 -1.20312,-0.359375 -0.54688,0 -0.96875,0.328125 -0.42188,0.328125 -0.60938,0.890625 -0.28125,0.875 -0.28125,1.921875 v 5.0625 z m 21.73972,-1.4375 q 1.23437,0.859375 2.26562,1.25 l -0.51562,1.21875 q -1.4375,-0.515625 -2.875,-1.625 -1.48438,0.828125 -3.28125,0.828125 -1.8125,0 -3.29688,-0.875 -1.46875,-0.875 -2.26562,-2.453125 -0.79688,-1.59375 -0.79688,-3.578125 0,-1.984375 0.79688,-3.59375 0.8125,-1.625 2.28125,-2.46875 1.48437,-0.859375 3.32812,-0.859375 1.84375,0 3.32813,0.890625 1.48437,0.875 2.26562,2.453125 0.78125,1.578125 0.78125,3.5625 0,1.65625 -0.5,2.96875 -0.5,1.3125 -1.51562,2.28125 z m -3.89063,-2.25 q 1.53125,0.421875 2.51563,1.28125 1.5625,-1.421875 1.5625,-4.28125 0,-1.625 -0.54688,-2.828125 -0.54687,-1.21875 -1.60937,-1.875 -1.0625,-0.671875 -2.39063,-0.671875 -1.96875,0 -3.28125,1.359375 -1.29687,1.34375 -1.29687,4.03125 0,2.59375 1.28125,4 1.29687,1.390625 3.29687,1.390625 0.95313,0 1.78125,-0.359375 -0.82812,-0.53125 -1.75,-0.765625 z m 14.40207,3.6875 v -1.421875 q -1.125,1.640625 -3.0625,1.640625 -0.85937,0 -1.60937,-0.328125 -0.73438,-0.328125 -1.09375,-0.828125 -0.35938,-0.5 -0.5,-1.21875 -0.10938,-0.46875 -0.10938,-1.53125 v -5.984375 h 1.64063 v 5.359375 q 0,1.28125 0.10937,1.734375 0.15625,0.640625 0.65625,1.015625 0.5,0.375 1.23438,0.375 0.73437,0 1.375,-0.375 0.65625,-0.390625 0.92187,-1.03125 0.26563,-0.65625 0.26563,-1.890625 v -5.1875 h 1.64062 v 9.671875 z m 10.67258,-3.109375 1.6875,0.203125 q -0.40625,1.484375 -1.48437,2.3125 -1.07813,0.8125 -2.76563,0.8125 -2.125,0 -3.375,-1.296875 -1.23437,-1.3125 -1.23437,-3.671875 0,-2.453125 1.25,-3.796875 1.26562,-1.34375 3.26562,-1.34375 1.9375,0 3.15625,1.328125 1.23438,1.3125 1.23438,3.703125 0,0.15625 0,0.4375 h -7.21875 q 0.0937,1.59375 0.90625,2.453125 0.8125,0.84375 2.01562,0.84375 0.90625,0 1.54688,-0.46875 0.64062,-0.484375 1.01562,-1.515625 z m -5.39062,-2.65625 h 5.40625 q -0.10938,-1.21875 -0.625,-1.828125 -0.78125,-0.953125 -2.03125,-0.953125 -1.125,0 -1.90625,0.765625 -0.76563,0.75 -0.84375,2.015625 z m 15.46948,5.765625 v -1.421875 q -1.125,1.640625 -3.0625,1.640625 -0.85938,0 -1.60938,-0.328125 -0.73437,-0.328125 -1.09375,-0.828125 -0.35937,-0.5 -0.5,-1.21875 -0.10937,-0.46875 -0.10937,-1.53125 v -5.984375 h 1.64062 v 5.359375 q 0,1.28125 0.10938,1.734375 0.15625,0.640625 0.65625,1.015625 0.5,0.375 1.23437,0.375 0.73438,0 1.375,-0.375 0.65625,-0.390625 0.92188,-1.03125 0.26562,-0.65625 0.26562,-1.890625 v -5.1875 h 1.64063 v 9.671875 z m 10.67257,-3.109375 1.6875,0.203125 q -0.40625,1.484375 -1.48437,2.3125 -1.07813,0.8125 -2.76563,0.8125 -2.125,0 -3.375,-1.296875 -1.23437,-1.3125 -1.23437,-3.671875 0,-2.453125 1.25,-3.796875 1.26562,-1.34375 3.26562,-1.34375 1.9375,0 3.15625,1.328125 1.23438,1.3125 1.23438,3.703125 0,0.15625 0,0.4375 h -7.21875 q 0.0937,1.59375 0.90625,2.453125 0.8125,0.84375 2.01562,0.84375 0.90625,0 1.54688,-0.46875 0.64062,-0.484375 1.01562,-1.515625 z m -5.39062,-2.65625 h 5.40625 q -0.10938,-1.21875 -0.625,-1.828125 -0.78125,-0.953125 -2.03125,-0.953125 -1.125,0 -1.90625,0.765625 -0.76563,0.75 -0.84375,2.015625 z"
       id="path51"
       inkscape:connector-curvature="0"
       style="fill:#000000;fill-rule:nonzero" />
    <path
       d="m 327.6324,186.97696 v 0 c 0,-3.70807 3.00598,-6.71405 6.71405,-6.71405 h 26.85538 v 0 c 1.78067,0 3.4884,0.70738 4.74753,1.9665 1.25912,1.25913 1.96649,2.96688 1.96649,4.74755 V 357.2654 c 0,3.70807 -3.00598,6.71405 -6.71402,6.71405 h -26.85538 c -3.70807,0 -6.71405,-3.00598 -6.71405,-6.71405 z"
       id="path53"
       inkscape:connector-curvature="0"
       style="fill:#cfe2f3;fill-rule:evenodd" />
    <path
       d="m 327.6324,186.97696 v 0 c 0,-3.70807 3.00598,-6.71405 6.71405,-6.71405 h 26.85538 v 0 c 1.78067,0 3.4884,0.70738 4.74753,1.9665 1.25912,1.25913 1.96649,2.96688 1.96649,4.74755 V 357.2654 c 0,3.70807 -3.00598,6.71405 -6.71402,6.71405 h -26.85538 c -3.70807,0 -6.71405,-3.00598 -6.71405,-6.71405 z"
       id="path55"
       inkscape:connector-curvature="0"
       style="fill-rule:evenodd;stroke:#000000;stroke-width:1;stroke-linecap:butt;stroke-linejoin:round" />
    <path
       d="m 367.91584,175.16055 h 28.44095 V 369.0818 h -28.44095 z"
       id="path57"
       inkscape:connector-curvature="0"
       style="fill:#000000;fill-opacity:0;fill-rule:evenodd" />
    <path
       d="m 379.05626,195.68056 v -8.59375 h 3.25 q 0.84375,0 1.29688,0.0781 0.64062,0.10938 1.0625,0.40625 0.4375,0.29688 0.6875,0.82813 0.26562,0.53125 0.26562,1.17187 0,1.09375 -0.70312,1.85938 -0.6875,0.75 -2.51563,0.75 h -2.20312 v 3.5 z m 1.14063,-4.5 h 2.21875 q 1.10937,0 1.5625,-0.40625 0.46875,-0.42188 0.46875,-1.17188 0,-0.53125 -0.28125,-0.90625 -0.26563,-0.39062 -0.70313,-0.51562 -0.29687,-0.0781 -1.0625,-0.0781 h -2.20312 z"
       id="path59"
       inkscape:connector-curvature="0"
       style="fill:#000000;fill-rule:nonzero" />
    <path
       d="m 383.8463,208.08055 1.09375,0.125 q -0.25,0.95312 -0.95312,1.48437 -0.70313,0.53125 -1.78125,0.53125 -1.35938,0 -2.17188,-0.84375 -0.79687,-0.84375 -0.79687,-2.35937 0,-1.5625 0.8125,-2.42188 0.8125,-0.875 2.09375,-0.875 1.25,0 2.03125,0.84375 0.79687,0.84375 0.79687,2.39063 0,0.0937 0,0.28125 h -4.64062 q 0.0625,1.03125 0.57812,1.57812 0.51563,0.53125 1.29688,0.53125 0.57812,0 0.98437,-0.29687 0.42188,-0.3125 0.65625,-0.96875 z m -3.45312,-1.70313 h 3.46875 q -0.0625,-0.79687 -0.39063,-1.1875 -0.51562,-0.60937 -1.3125,-0.60937 -0.73437,0 -1.23437,0.48437 -0.48438,0.48438 -0.53125,1.3125 z"
       id="path61"
       inkscape:connector-curvature="0"
       style="fill:#000000;fill-rule:nonzero" />
    <path
       d="m 379.5963,224.48054 v -6.21875 h 0.9375 v 0.875 q 0.6875,-1.01563 1.98438,-1.01563 0.5625,0 1.03125,0.20313 0.48437,0.20312 0.71875,0.53125 0.23437,0.32812 0.32812,0.76562 0.0469,0.29688 0.0469,1.03125 v 3.82813 h -1.04688 v -3.78125 q 0,-0.65625 -0.125,-0.96875 -0.125,-0.3125 -0.4375,-0.5 -0.3125,-0.20313 -0.73437,-0.20313 -0.67188,0 -1.17188,0.4375 -0.48437,0.42188 -0.48437,1.60938 v 3.40625 z"
       id="path63"
       inkscape:connector-curvature="0"
       style="fill:#000000;fill-rule:nonzero" />
    <path
       d="m 382.29454,238.88058 v -0.78125 q -0.59375,0.92187 -1.73437,0.92187 -0.75,0 -1.375,-0.40625 -0.625,-0.42187 -0.96875,-1.15625 -0.34375,-0.73437 -0.34375,-1.6875 0,-0.92187 0.3125,-1.6875 0.3125,-0.76562 0.9375,-1.15625 0.625,-0.40625 1.39062,-0.40625 0.5625,0 1,0.23438 0.4375,0.23437 0.71875,0.60937 v -3.07812 h 1.04688 v 8.59375 z m -3.32812,-3.10938 q 0,1.20313 0.5,1.79688 0.5,0.57812 1.1875,0.57812 0.6875,0 1.17187,-0.5625 0.48438,-0.5625 0.48438,-1.71875 0,-1.28125 -0.5,-1.875 -0.48438,-0.59375 -1.20313,-0.59375 -0.70312,0 -1.17187,0.57813 -0.46875,0.5625 -0.46875,1.79687 z m 5.9707,-4.26562 v -1.21875 h 1.0625 v 1.21875 z m 0,7.375 v -6.21875 h 1.0625 v 6.21875 z"
       id="path65"
       inkscape:connector-curvature="0"
       style="fill:#000000;fill-rule:nonzero" />
    <path
       d="m 379.5963,253.28056 v -6.21875 h 0.9375 v 0.875 q 0.6875,-1.01563 1.98438,-1.01563 0.5625,0 1.03125,0.20313 0.48437,0.20312 0.71875,0.53125 0.23437,0.32812 0.32812,0.76562 0.0469,0.29688 0.0469,1.03125 v 3.82813 h -1.04688 v -3.78125 q 0,-0.65625 -0.125,-0.96875 -0.125,-0.3125 -0.4375,-0.5 -0.3125,-0.20313 -0.73437,-0.20313 -0.67188,0 -1.17188,0.4375 -0.48437,0.42188 -0.48437,1.60938 v 3.40625 z"
       id="path67"
       inkscape:connector-curvature="0"
       style="fill:#000000;fill-rule:nonzero" />
    <path
       d="m 379.39317,268.19618 1.03125,0.15625 q 0.0625,0.46875 0.35938,0.6875 0.39062,0.29687 1.0625,0.29687 0.73437,0 1.125,-0.29687 0.40625,-0.29688 0.54687,-0.8125 0.0937,-0.32813 0.0781,-1.35938 -0.6875,0.8125 -1.71875,0.8125 -1.28125,0 -1.98438,-0.92187 -0.70312,-0.9375 -0.70312,-2.21875 0,-0.89063 0.3125,-1.64063 0.32812,-0.76562 0.9375,-1.17187 0.60937,-0.40625 1.4375,-0.40625 1.10937,0 1.82812,0.89062 v -0.75 h 0.96875 v 5.375 q 0,1.45313 -0.29687,2.0625 -0.29688,0.60938 -0.9375,0.95313 -0.64063,0.35937 -1.57813,0.35937 -1.10937,0 -1.79687,-0.5 -0.6875,-0.5 -0.67188,-1.51562 z m 0.875,-3.73438 q 0,1.21875 0.48438,1.78125 0.48437,0.5625 1.21875,0.5625 0.73437,0 1.21875,-0.5625 0.5,-0.5625 0.5,-1.75 0,-1.14062 -0.51563,-1.71875 -0.5,-0.57812 -1.21875,-0.57812 -0.70312,0 -1.20312,0.57812 -0.48438,0.5625 -0.48438,1.6875 z"
       id="path69"
       inkscape:connector-curvature="0"
       style="fill:#000000;fill-rule:nonzero" />
    <path
       d="m 379.48009,294.04304 1.03125,-0.14063 q 0.0312,0.98438 0.35938,1.34375 0.32812,0.35938 0.92187,0.35938 0.42188,0 0.73438,-0.1875 0.3125,-0.20313 0.42187,-0.53125 0.125,-0.34375 0.125,-1.07813 v -5.92187 h 1.125 v 5.85937 q 0,1.07813 -0.26562,1.67188 -0.25,0.59375 -0.8125,0.90625 -0.5625,0.29687 -1.32813,0.29687 -1.125,0 -1.73437,-0.64062 -0.59375,-0.65625 -0.57813,-1.9375 z"
       id="path71"
       inkscape:connector-curvature="0"
       style="fill:#000000;fill-rule:nonzero" />
    <path
       d="m 379.20567,307.77116 q 0,-1.73438 0.95313,-2.5625 0.79687,-0.6875 1.95312,-0.6875 1.28125,0 2.09375,0.84375 0.82813,0.82812 0.82813,2.3125 0,1.20312 -0.35938,1.89062 -0.35937,0.6875 -1.0625,1.07813 -0.6875,0.375 -1.5,0.375 -1.29687,0 -2.10937,-0.82813 -0.79688,-0.84375 -0.79688,-2.42187 z m 1.07813,0 q 0,1.1875 0.51562,1.78125 0.53125,0.59375 1.3125,0.59375 0.79688,0 1.3125,-0.59375 0.51563,-0.59375 0.51563,-1.8125 0,-1.15625 -0.53125,-1.75 -0.51563,-0.59375 -1.29688,-0.59375 -0.78125,0 -1.3125,0.59375 -0.51562,0.57812 -0.51562,1.78125 z"
       id="path73"
       inkscape:connector-curvature="0"
       style="fill:#000000;fill-rule:nonzero" />
    <path
       d="m 380.56504,325.28053 h -0.98437 v -8.59375 h 1.0625 v 3.0625 q 0.67187,-0.82813 1.70312,-0.82813 0.57813,0 1.07813,0.23438 0.51562,0.21875 0.84375,0.64062 0.34375,0.42188 0.53125,1.01563 0.1875,0.59375 0.1875,1.26562 0,1.59375 -0.79688,2.46875 -0.79687,0.875 -1.89062,0.875 -1.10938,0 -1.73438,-0.92187 z m -0.0156,-3.15625 q 0,1.10937 0.3125,1.60937 0.5,0.8125 1.34375,0.8125 0.6875,0 1.1875,-0.59375 0.51562,-0.59375 0.51562,-1.79687 0,-1.21875 -0.48437,-1.79688 -0.48438,-0.57812 -1.17188,-0.57812 -0.6875,0 -1.20312,0.60937 -0.5,0.59375 -0.5,1.73438 z"
       id="path75"
       inkscape:connector-curvature="0"
       style="fill:#000000;fill-rule:nonzero" />
    <path
       d="m 379.51134,337.82118 1.03125,-0.15625 q 0.0937,0.625 0.48438,0.95312 0.40625,0.32813 1.14062,0.32813 0.71875,0 1.0625,-0.28125 0.35938,-0.29688 0.35938,-0.70313 0,-0.35937 -0.3125,-0.5625 -0.21875,-0.14062 -1.07813,-0.35937 -1.15625,-0.29688 -1.60937,-0.5 -0.4375,-0.21875 -0.67188,-0.59375 -0.23437,-0.375 -0.23437,-0.84375 0,-0.40625 0.1875,-0.76563 0.1875,-0.35937 0.51562,-0.59375 0.25,-0.17187 0.67188,-0.29687 0.42187,-0.125 0.92187,-0.125 0.71875,0 1.26563,0.21875 0.5625,0.20312 0.82812,0.5625 0.26563,0.35937 0.35938,0.95312 l -1.03125,0.14063 q -0.0625,-0.46875 -0.40625,-0.73438 -0.32813,-0.28125 -0.95313,-0.28125 -0.71875,0 -1.03125,0.25 -0.3125,0.23438 -0.3125,0.5625 0,0.20313 0.125,0.35938 0.14063,0.17187 0.40625,0.28125 0.15625,0.0625 0.9375,0.26562 1.125,0.3125 1.5625,0.5 0.4375,0.1875 0.6875,0.54688 0.25,0.35937 0.25,0.90625 0,0.53125 -0.3125,1 -0.29687,0.45312 -0.875,0.71875 -0.57812,0.25 -1.3125,0.25 -1.21875,0 -1.85937,-0.5 -0.625,-0.51563 -0.79688,-1.5 z"
       id="path77"
       inkscape:connector-curvature="0"
       style="fill:#000000;fill-rule:nonzero" />
    <path
       d="m 470.24454,180.26291 h 222.41934 c 5.5e-4,0 0.001,2.3e-4 0.001,6.2e-4 4.2e-4,4e-4 6.7e-4,9.3e-4 6.7e-4,0.001 l -0.002,153.09439 c 0,16.91098 -13.70904,30.62002 -30.62006,30.62002 H 439.62451 v 0 c -10e-4,0 -0.002,-9.4e-4 -0.002,-0.002 l 0.002,-153.09439 v 0 c 0,-16.91098 13.70905,-30.62004 30.62003,-30.62004 z"
       id="path79"
       inkscape:connector-curvature="0"
       style="fill:#cfe2f3;fill-rule:evenodd" />
    <path
       d="m 470.24454,180.26291 h 222.41934 c 5.5e-4,0 0.001,2.3e-4 0.001,6.2e-4 4.2e-4,4e-4 6.7e-4,9.3e-4 6.7e-4,0.001 l -0.002,153.09439 c 0,16.91098 -13.70904,30.62002 -30.62006,30.62002 H 439.62451 v 0 c -10e-4,0 -0.002,-9.4e-4 -0.002,-0.002 l 0.002,-153.09439 v 0 c 0,-16.91098 13.70905,-30.62004 30.62003,-30.62004 z"
       id="path81"
       inkscape:connector-curvature="0"
       style="fill-rule:evenodd;stroke:#000000;stroke-width:1;stroke-linecap:butt;stroke-linejoin:round" />
    <path
       d="m 478.43861,212.26292 h 198.82373 c 4.9e-4,0 9.2e-4,1.8e-4 10e-4,5.2e-4 3.7e-4,3.6e-4 5.5e-4,8.2e-4 5.5e-4,0.001 l -0.002,114.06595 c 0,12.59988 -10.21423,22.81409 -22.81415,22.81409 H 455.62452 v 0 c -0.001,0 -0.002,-8.3e-4 -0.002,-0.002 l 0.002,-114.06595 v 0 c 0,-12.59988 10.21424,-22.81408 22.81409,-22.81408 z"
       id="path83"
       inkscape:connector-curvature="0"
       style="fill:#dd7e6b;fill-rule:evenodd" />
    <path
       d="m 478.43861,212.26292 h 198.82373 c 4.9e-4,0 9.2e-4,1.8e-4 10e-4,5.2e-4 3.7e-4,3.6e-4 5.5e-4,8.2e-4 5.5e-4,0.001 l -0.002,114.06595 c 0,12.59988 -10.21423,22.81409 -22.81415,22.81409 H 455.62452 v 0 c -0.001,0 -0.002,-8.3e-4 -0.002,-0.002 l 0.002,-114.06595 v 0 c 0,-12.59988 10.21424,-22.81408 22.81409,-22.81408 z"
       id="path85"
       inkscape:connector-curvature="0"
       style="fill-rule:evenodd;stroke:#000000;stroke-width:1;stroke-linecap:butt;stroke-linejoin:round" />
    <path
       d="m 455.62454,175.16055 h 145.19684 v 42.01573 H 455.62454 Z"
       id="path87"
       inkscape:connector-curvature="0"
       style="fill:#000000;fill-opacity:0;fill-rule:evenodd" />
    <path
       d="m 468.39014,202.08055 -3.53125,-13.35938 h 1.8125 l 2.03125,8.76563 q 0.32813,1.375 0.5625,2.71875 0.5,-2.14063 0.59375,-2.46875 l 2.54688,-9.01563 h 2.125 l 1.92187,6.76563 q 0.71875,2.51562 1.03125,4.71875 0.26563,-1.26563 0.67188,-2.89063 l 2.09375,-8.59375 h 1.78125 l -3.67188,13.35938 h -1.70312 l -2.8125,-10.17188 q -0.35938,-1.28125 -0.42188,-1.5625 -0.20312,0.90625 -0.39062,1.5625 l -2.82813,10.17188 z m 14.1308,-4.84375 q 0,-2.6875 1.48437,-3.96875 1.25,-1.07813 3.04688,-1.07813 2,0 3.26562,1.3125 1.26563,1.29688 1.26563,3.60938 0,1.85937 -0.5625,2.9375 -0.5625,1.0625 -1.64063,1.65625 -1.0625,0.59375 -2.32812,0.59375 -2.03125,0 -3.28125,-1.29688 -1.25,-1.3125 -1.25,-3.76562 z m 1.6875,0 q 0,1.85937 0.79687,2.79687 0.8125,0.92188 2.04688,0.92188 1.21875,0 2.03125,-0.92188 0.8125,-0.9375 0.8125,-2.84375 0,-1.79687 -0.8125,-2.71875 -0.8125,-0.92187 -2.03125,-0.92187 -1.23438,0 -2.04688,0.92187 -0.79687,0.90625 -0.79687,2.76563 z m 9.28195,4.84375 v -9.67188 h 1.46875 v 1.46875 q 0.5625,-1.03125 1.03125,-1.35937 0.48438,-0.32813 1.0625,-0.32813 0.82813,0 1.6875,0.53125 l -0.5625,1.51563 q -0.60937,-0.35938 -1.20312,-0.35938 -0.54688,0 -0.96875,0.32813 -0.42188,0.32812 -0.60938,0.89062 -0.28125,0.875 -0.28125,1.92188 v 5.0625 z m 6.2283,0 v -13.35938 h 1.64063 v 7.625 l 3.89062,-3.9375 h 2.10938 l -3.6875,3.59375 4.0625,6.07813 h -2.01563 l -3.20312,-4.95313 -1.15625,1.125 v 3.82813 z m 15.95313,-3.10938 1.6875,0.20313 q -0.40625,1.48437 -1.48438,2.3125 -1.07812,0.8125 -2.76562,0.8125 -2.125,0 -3.375,-1.29688 -1.23438,-1.3125 -1.23438,-3.67187 0,-2.45313 1.25,-3.79688 1.26563,-1.34375 3.26563,-1.34375 1.9375,0 3.15625,1.32813 1.23437,1.3125 1.23437,3.70312 0,0.15625 0,0.4375 h -7.21875 q 0.0937,1.59375 0.90625,2.45313 0.8125,0.84375 2.01563,0.84375 0.90625,0 1.54687,-0.46875 0.64063,-0.48438 1.01563,-1.51563 z m -5.39063,-2.65625 h 5.40625 q -0.10937,-1.21875 -0.625,-1.82812 -0.78125,-0.95313 -2.03125,-0.95313 -1.125,0 -1.90625,0.76563 -0.76562,0.75 -0.84375,2.01562 z m 9.12573,5.76563 v -9.67188 h 1.46875 v 1.46875 q 0.5625,-1.03125 1.03125,-1.35937 0.48438,-0.32813 1.0625,-0.32813 0.82813,0 1.6875,0.53125 l -0.5625,1.51563 q -0.60937,-0.35938 -1.20312,-0.35938 -0.54688,0 -0.96875,0.32813 -0.42188,0.32812 -0.60938,0.89062 -0.28125,0.875 -0.28125,1.92188 v 5.0625 z m 14.68372,0 V 190.2993 h -4.40625 v -1.57813 h 10.57813 v 1.57813 h -4.40625 v 11.78125 z m 7.78662,0 v -13.35938 h 1.64063 v 4.79688 q 1.14062,-1.32813 2.89062,-1.32813 1.07813,0 1.85938,0.42188 0.79687,0.42187 1.14062,1.17187 0.34375,0.75 0.34375,2.17188 v 6.125 h -1.64062 v -6.125 q 0,-1.23438 -0.53125,-1.79688 -0.53125,-0.5625 -1.51563,-0.5625 -0.71875,0 -1.35937,0.39063 -0.64063,0.375 -0.92188,1.01562 -0.26562,0.64063 -0.26562,1.78125 v 5.29688 z m 10.36011,0 v -9.67188 h 1.46875 v 1.46875 q 0.5625,-1.03125 1.03125,-1.35937 0.48437,-0.32813 1.0625,-0.32813 0.82812,0 1.6875,0.53125 l -0.5625,1.51563 q -0.60938,-0.35938 -1.20313,-0.35938 -0.54687,0 -0.96875,0.32813 -0.42187,0.32812 -0.60937,0.89062 -0.28125,0.875 -0.28125,1.92188 v 5.0625 z m 12.85327,-3.10938 1.6875,0.20313 q -0.40625,1.48437 -1.48437,2.3125 -1.07813,0.8125 -2.76563,0.8125 -2.125,0 -3.375,-1.29688 -1.23437,-1.3125 -1.23437,-3.67187 0,-2.45313 1.25,-3.79688 1.26562,-1.34375 3.26562,-1.34375 1.9375,0 3.15625,1.32813 1.23438,1.3125 1.23438,3.70312 0,0.15625 0,0.4375 h -7.21875 q 0.0937,1.59375 0.90625,2.45313 0.8125,0.84375 2.01562,0.84375 0.90625,0 1.54688,-0.46875 0.64062,-0.48438 1.01562,-1.51563 z m -5.39062,-2.65625 h 5.40625 q -0.10938,-1.21875 -0.625,-1.82812 -0.78125,-0.95313 -2.03125,-0.95313 -1.125,0 -1.90625,0.76563 -0.76563,0.75 -0.84375,2.01562 z m 15.45385,4.57813 q -0.92187,0.76562 -1.76562,1.09375 -0.82813,0.3125 -1.79688,0.3125 -1.59375,0 -2.45312,-0.78125 -0.85938,-0.78125 -0.85938,-1.98438 0,-0.71875 0.32813,-1.29687 0.32812,-0.59375 0.84375,-0.9375 0.53125,-0.35938 1.1875,-0.54688 0.46875,-0.125 1.45312,-0.25 1.98438,-0.23437 2.92188,-0.5625 0.0156,-0.34375 0.0156,-0.42187 0,-1 -0.46875,-1.42188 -0.625,-0.54687 -1.875,-0.54687 -1.15625,0 -1.70312,0.40625 -0.54688,0.40625 -0.8125,1.42187 l -1.60938,-0.21875 q 0.21875,-1.01562 0.71875,-1.64062 0.5,-0.64063 1.45313,-0.98438 0.95312,-0.34375 2.1875,-0.34375 1.25,0 2.01562,0.29688 0.78125,0.28125 1.14063,0.73437 0.375,0.4375 0.51562,1.10938 0.0781,0.42187 0.0781,1.51562 v 2.1875 q 0,2.28125 0.10937,2.89063 0.10938,0.59375 0.40625,1.15625 H 575.482 q -0.26563,-0.51563 -0.32813,-1.1875 z m -0.14062,-3.67188 q -0.89063,0.375 -2.67188,0.625 -1.01562,0.14063 -1.4375,0.32813 -0.42187,0.1875 -0.65625,0.53125 -0.21875,0.34375 -0.21875,0.78125 0,0.65625 0.5,1.09375 0.5,0.4375 1.45313,0.4375 0.9375,0 1.67187,-0.40625 0.75,-0.42188 1.09375,-1.14063 0.26563,-0.5625 0.26563,-1.64062 z m 10.46948,4.85938 v -1.21875 q -0.90625,1.4375 -2.70313,1.4375 -1.15625,0 -2.125,-0.64063 -0.96875,-0.64062 -1.5,-1.78125 -0.53125,-1.14062 -0.53125,-2.625 0,-1.45312 0.48438,-2.625 0.48437,-1.1875 1.4375,-1.8125 0.96875,-0.625 2.17187,-0.625 0.875,0 1.54688,0.375 0.6875,0.35938 1.10937,0.95313 v -4.79688 h 1.64063 v 13.35938 z m -5.17188,-4.82813 q 0,1.85938 0.78125,2.78125 0.78125,0.92188 1.84375,0.92188 1.07813,0 1.82813,-0.875 0.75,-0.89063 0.75,-2.6875 0,-1.98438 -0.76563,-2.90625 -0.76562,-0.9375 -1.89062,-0.9375 -1.07813,0 -1.8125,0.89062 -0.73438,0.89063 -0.73438,2.8125 z"
       id="path89"
       inkscape:connector-curvature="0"
       style="fill:#000000;fill-rule:nonzero" />
    <path
       d="m 455.62454,217.17628 h 186.67719 v 64.62994 H 455.62454 Z"
       id="path91"
       inkscape:connector-curvature="0"
       style="fill:#000000;fill-opacity:0;fill-rule:evenodd" />
    <path
       d="m 465.46828,239.79942 1.65625,-0.14063 q 0.125,1 0.54688,1.64063 0.4375,0.64062 1.34375,1.04687 0.92187,0.39063 2.0625,0.39063 1,0 1.78125,-0.29688 0.78125,-0.29687 1.15625,-0.8125 0.375,-0.53125 0.375,-1.15625 0,-0.625 -0.375,-1.09375 -0.35938,-0.46875 -1.1875,-0.79687 -0.54688,-0.20313 -2.39063,-0.64063 -1.82812,-0.45312 -2.5625,-0.84375 -0.96875,-0.5 -1.4375,-1.23437 -0.46875,-0.75 -0.46875,-1.67188 0,-1 0.57813,-1.875 0.57812,-0.89062 1.67187,-1.34375 1.10938,-0.45312 2.45313,-0.45312 1.48437,0 2.60937,0.48437 1.14063,0.46875 1.75,1.40625 0.60938,0.92188 0.65625,2.09375 l -1.6875,0.125 q -0.14062,-1.26562 -0.9375,-1.90625 -0.78125,-0.65625 -2.3125,-0.65625 -1.60937,0 -2.34375,0.59375 -0.73437,0.59375 -0.73437,1.42188 0,0.71875 0.53125,1.17187 0.5,0.46875 2.65625,0.96875 2.15625,0.48438 2.95312,0.84375 1.17188,0.53125 1.71875,1.35938 0.5625,0.82812 0.5625,1.90625 0,1.0625 -0.60937,2.01562 -0.60938,0.9375 -1.75,1.46875 -1.14063,0.51563 -2.57813,0.51563 -1.8125,0 -3.04687,-0.53125 -1.21875,-0.53125 -1.92188,-1.59375 -0.6875,-1.0625 -0.71875,-2.40625 z m 19.1467,0.75 1.60937,0.21875 q -0.26562,1.65625 -1.35937,2.60937 -1.07813,0.9375 -2.67188,0.9375 -1.98437,0 -3.1875,-1.29687 -1.20312,-1.29688 -1.20312,-3.71875 0,-1.57813 0.51562,-2.75 0.51563,-1.17188 1.57813,-1.75 1.0625,-0.59375 2.3125,-0.59375 1.57812,0 2.57812,0.79687 1,0.79688 1.28125,2.26563 l -1.59375,0.23437 q -0.23437,-0.96875 -0.8125,-1.45312 -0.57812,-0.5 -1.39062,-0.5 -1.23438,0 -2.01563,0.89062 -0.78125,0.89063 -0.78125,2.8125 0,1.95313 0.75,2.84375 0.75,0.875 1.95313,0.875 0.96875,0 1.60937,-0.59375 0.65625,-0.59375 0.82813,-1.82812 z m 3.01562,3.54687 v -13.35937 h 1.64063 v 4.79687 q 1.14062,-1.32812 2.89062,-1.32812 1.07813,0 1.85938,0.42187 0.79687,0.42188 1.14062,1.17188 0.34375,0.75 0.34375,2.17187 v 6.125 h -1.64062 v -6.125 q 0,-1.23437 -0.53125,-1.79687 -0.53125,-0.5625 -1.51563,-0.5625 -0.71875,0 -1.35937,0.39062 -0.64063,0.375 -0.92188,1.01563 -0.26562,0.64062 -0.26562,1.78125 v 5.29687 z m 17.00071,-3.10937 1.6875,0.20312 q -0.40625,1.48438 -1.48438,2.3125 -1.07812,0.8125 -2.76562,0.8125 -2.125,0 -3.375,-1.29687 -1.23438,-1.3125 -1.23438,-3.67188 0,-2.45312 1.25,-3.79687 1.26563,-1.34375 3.26563,-1.34375 1.9375,0 3.15625,1.32812 1.23437,1.3125 1.23437,3.70313 0,0.15625 0,0.4375 h -7.21875 q 0.0937,1.59375 0.90625,2.45312 0.8125,0.84375 2.01563,0.84375 0.90625,0 1.54687,-0.46875 0.64063,-0.48437 1.01563,-1.51562 z m -5.39063,-2.65625 h 5.40625 q -0.10937,-1.21875 -0.625,-1.82813 -0.78125,-0.95312 -2.03125,-0.95312 -1.125,0 -1.90625,0.76562 -0.76562,0.75 -0.84375,2.01563 z m 15.40698,5.76562 v -1.21875 q -0.90625,1.4375 -2.70312,1.4375 -1.15625,0 -2.125,-0.64062 -0.96875,-0.64063 -1.5,-1.78125 -0.53125,-1.14063 -0.53125,-2.625 0,-1.45313 0.48437,-2.625 0.48438,-1.1875 1.4375,-1.8125 0.96875,-0.625 2.17188,-0.625 0.875,0 1.54687,0.375 0.6875,0.35937 1.10938,0.95312 v -4.79687 h 1.64062 v 13.35937 z m -5.17187,-4.82812 q 0,1.85937 0.78125,2.78125 0.78125,0.92187 1.84375,0.92187 1.07812,0 1.82812,-0.875 0.75,-0.89062 0.75,-2.6875 0,-1.98437 -0.76562,-2.90625 -0.76563,-0.9375 -1.89063,-0.9375 -1.07812,0 -1.8125,0.89063 -0.73437,0.89062 -0.73437,2.8125 z m 15.6101,4.82812 v -1.42187 q -1.125,1.64062 -3.0625,1.64062 -0.85937,0 -1.60937,-0.32812 -0.73438,-0.32813 -1.09375,-0.82813 -0.35938,-0.5 -0.5,-1.21875 -0.10938,-0.46875 -0.10938,-1.53125 v -5.98437 h 1.64063 v 5.35937 q 0,1.28125 0.10937,1.73438 0.15625,0.64062 0.65625,1.01562 0.5,0.375 1.23438,0.375 0.73437,0 1.375,-0.375 0.65625,-0.39062 0.92187,-1.03125 0.26563,-0.65625 0.26563,-1.89062 v -5.1875 h 1.64062 v 9.67187 z m 4.00068,0 v -13.35937 h 1.64062 v 13.35937 z m 10.81671,-3.10937 1.6875,0.20312 q -0.40625,1.48438 -1.48438,2.3125 -1.07812,0.8125 -2.76562,0.8125 -2.125,0 -3.375,-1.29687 -1.23438,-1.3125 -1.23438,-3.67188 0,-2.45312 1.25,-3.79687 1.26563,-1.34375 3.26563,-1.34375 1.9375,0 3.15625,1.32812 1.23437,1.3125 1.23437,3.70313 0,0.15625 0,0.4375 h -7.21875 q 0.0937,1.59375 0.90625,2.45312 0.8125,0.84375 2.01563,0.84375 0.90625,0 1.54687,-0.46875 0.64063,-0.48437 1.01563,-1.51562 z m -5.39063,-2.65625 h 5.40625 q -0.10937,-1.21875 -0.625,-1.82813 -0.78125,-0.95312 -2.03125,-0.95312 -1.125,0 -1.90625,0.76562 -0.76562,0.75 -0.84375,2.01563 z m 9.12573,5.76562 v -9.67187 h 1.46875 v 1.46875 q 0.5625,-1.03125 1.03125,-1.35938 0.48438,-0.32812 1.0625,-0.32812 0.82813,0 1.6875,0.53125 l -0.5625,1.51562 q -0.60937,-0.35937 -1.20312,-0.35937 -0.54688,0 -0.96875,0.32812 -0.42188,0.32813 -0.60938,0.89063 -0.28125,0.875 -0.28125,1.92187 v 5.0625 z"
       id="path93"
       inkscape:connector-curvature="0"
       style="fill:#000000;fill-rule:nonzero" />
    <path
       d="m 468.9839,270.41818 q -1.35937,-1.70313 -2.29687,-4 -0.9375,-2.29688 -0.9375,-4.76563 0,-2.15625 0.70312,-4.14062 0.82813,-2.3125 2.53125,-4.59375 h 1.17188 q -1.09375,1.89062 -1.45313,2.70312 -0.54687,1.25 -0.875,2.625 -0.39062,1.70313 -0.39062,3.42188 0,4.375 2.71875,8.75 z m 6.6658,-5.39063 0.23438,1.45313 q -0.6875,0.14062 -1.23438,0.14062 -0.89062,0 -1.39062,-0.28125 -0.48438,-0.28125 -0.6875,-0.73437 -0.20313,-0.46875 -0.20313,-1.9375 v -5.57813 h -1.20312 v -1.26562 h 1.20312 v -2.39063 l 1.625,-0.98437 v 3.375 h 1.65625 v 1.26562 h -1.65625 v 5.67188 q 0,0.6875 0.0781,0.89062 0.0937,0.20313 0.28125,0.32813 0.20312,0.10937 0.57812,0.10937 0.26563,0 0.71875,-0.0625 z m 0.99579,-3.375 q 0,-2.6875 1.48438,-3.96875 1.25,-1.07812 3.04687,-1.07812 2,0 3.26563,1.3125 1.26562,1.29687 1.26562,3.60937 0,1.85938 -0.5625,2.9375 -0.5625,1.0625 -1.64062,1.65625 -1.0625,0.59375 -2.32813,0.59375 -2.03125,0 -3.28125,-1.29687 -1.25,-1.3125 -1.25,-3.76563 z m 1.6875,0 q 0,1.85938 0.79688,2.79688 0.8125,0.92187 2.04687,0.92187 1.21875,0 2.03125,-0.92187 0.8125,-0.9375 0.8125,-2.84375 0,-1.79688 -0.8125,-2.71875 -0.8125,-0.92188 -2.03125,-0.92188 -1.23437,0 -2.04687,0.92188 -0.79688,0.90625 -0.79688,2.76562 z m 9.29761,8.54688 v -13.375 h 1.48437 v 1.25 q 0.53125,-0.73438 1.1875,-1.09375 0.67188,-0.375 1.625,-0.375 1.23438,0 2.17188,0.64062 0.95312,0.625 1.4375,1.79688 0.48437,1.15625 0.48437,2.54687 0,1.48438 -0.53125,2.67188 -0.53125,1.1875 -1.54687,1.82812 -1.01563,0.625 -2.14063,0.625 -0.8125,0 -1.46875,-0.34375 -0.65625,-0.34375 -1.0625,-0.875 v 4.70313 z m 1.48437,-8.48438 q 0,1.85938 0.75,2.76563 0.76563,0.89062 1.82813,0.89062 1.09375,0 1.875,-0.92187 0.78125,-0.9375 0.78125,-2.875 0,-1.84375 -0.76563,-2.76563 -0.75,-0.92187 -1.8125,-0.92187 -1.04687,0 -1.85937,0.98437 -0.79688,0.96875 -0.79688,2.84375 z m 14.02777,4.78125 v -13.35937 h 1.64063 v 13.35937 z m 10.81669,-3.10937 1.6875,0.20312 q -0.40625,1.48438 -1.48438,2.3125 -1.07812,0.8125 -2.76562,0.8125 -2.125,0 -3.375,-1.29687 -1.23438,-1.3125 -1.23438,-3.67188 0,-2.45312 1.25,-3.79687 1.26563,-1.34375 3.26563,-1.34375 1.9375,0 3.15625,1.32812 1.23437,1.3125 1.23437,3.70313 0,0.15625 0,0.4375 h -7.21875 q 0.0937,1.59375 0.90625,2.45312 0.8125,0.84375 2.01563,0.84375 0.90625,0 1.54687,-0.46875 0.64063,-0.48437 1.01563,-1.51562 z m -5.39063,-2.65625 h 5.40625 q -0.10937,-1.21875 -0.625,-1.82813 -0.78125,-0.95312 -2.03125,-0.95312 -1.125,0 -1.90625,0.76562 -0.76562,0.75 -0.84375,2.01563 z m 11.82886,5.76562 -3.6875,-9.67187 h 1.73437 l 2.07813,5.79687 q 0.32812,0.9375 0.625,1.9375 0.20312,-0.76562 0.60937,-1.82812 l 2.14063,-5.90625 h 1.6875 l -3.65625,9.67187 z m 13.26562,-3.10937 1.6875,0.20312 q -0.40625,1.48438 -1.48437,2.3125 -1.07813,0.8125 -2.76563,0.8125 -2.125,0 -3.375,-1.29687 -1.23437,-1.3125 -1.23437,-3.67188 0,-2.45312 1.25,-3.79687 1.26562,-1.34375 3.26562,-1.34375 1.9375,0 3.15625,1.32812 1.23438,1.3125 1.23438,3.70313 0,0.15625 0,0.4375 h -7.21875 q 0.0937,1.59375 0.90625,2.45312 0.8125,0.84375 2.01562,0.84375 0.90625,0 1.54688,-0.46875 0.64062,-0.48437 1.01562,-1.51562 z m -5.39062,-2.65625 h 5.40625 q -0.10938,-1.21875 -0.625,-1.82813 -0.78125,-0.95312 -2.03125,-0.95312 -1.125,0 -1.90625,0.76562 -0.76563,0.75 -0.84375,2.01563 z m 9.09448,5.76562 v -13.35937 h 1.64062 v 13.35937 z m 9.76562,0 v -8.40625 h -1.45312 v -1.26562 h 1.45312 v -1.03125 q 0,-0.96875 0.17188,-1.45313 0.23437,-0.64062 0.82812,-1.03125 0.59375,-0.39062 1.67188,-0.39062 0.6875,0 1.53125,0.15625 l -0.25,1.4375 q -0.5,-0.0937 -0.95313,-0.0937 -0.75,0 -1.0625,0.32812 -0.3125,0.3125 -0.3125,1.1875 v 0.89063 h 1.89063 v 1.26562 h -1.89063 v 8.40625 z m 4.79267,-11.46875 v -1.89062 h 1.64062 v 1.89062 z m 0,11.46875 v -9.67187 h 1.64062 v 9.67187 z m 5.64483,0 h -1.51562 v -13.35937 h 1.64062 v 4.76562 q 1.04688,-1.29687 2.65625,-1.29687 0.89063,0 1.6875,0.35937 0.79688,0.35938 1.3125,1.01563 0.51563,0.64062 0.79688,1.5625 0.29687,0.92187 0.29687,1.96875 0,2.48437 -1.23437,3.84375 -1.21875,1.35937 -2.95313,1.35937 -1.70312,0 -2.6875,-1.4375 z m -0.0156,-4.90625 q 0,1.73438 0.48437,2.51563 0.76563,1.26562 2.09375,1.26562 1.07813,0 1.85938,-0.9375 0.78125,-0.9375 0.78125,-2.78125 0,-1.89062 -0.75,-2.79687 -0.75,-0.90625 -1.82813,-0.90625 -1.0625,0 -1.85937,0.9375 -0.78125,0.9375 -0.78125,2.70312 z m 15.5163,1.79688 1.6875,0.20312 q -0.40625,1.48438 -1.48438,2.3125 -1.07812,0.8125 -2.76562,0.8125 -2.125,0 -3.375,-1.29687 -1.23438,-1.3125 -1.23438,-3.67188 0,-2.45312 1.25,-3.79687 1.26563,-1.34375 3.26563,-1.34375 1.9375,0 3.15625,1.32812 1.23437,1.3125 1.23437,3.70313 0,0.15625 0,0.4375 h -7.21875 q 0.0937,1.59375 0.90625,2.45312 0.8125,0.84375 2.01563,0.84375 0.90625,0 1.54687,-0.46875 0.64063,-0.48437 1.01563,-1.51562 z m -5.39063,-2.65625 h 5.40625 q -0.10937,-1.21875 -0.625,-1.82813 -0.78125,-0.95312 -2.03125,-0.95312 -1.125,0 -1.90625,0.76562 -0.76562,0.75 -0.84375,2.01563 z m 9.12573,5.76562 v -9.67187 h 1.46875 v 1.46875 q 0.5625,-1.03125 1.03125,-1.35938 0.48438,-0.32812 1.0625,-0.32812 0.82813,0 1.6875,0.53125 l -0.5625,1.51562 q -0.60937,-0.35937 -1.20312,-0.35937 -0.54688,0 -0.96875,0.32812 -0.42188,0.32813 -0.60938,0.89063 -0.28125,0.875 -0.28125,1.92187 v 5.0625 z m 7.30646,3.92188 h -1.1875 q 2.73437,-4.375 2.73437,-8.75 0,-1.71875 -0.39062,-3.39063 -0.3125,-1.375 -0.875,-2.625 -0.35938,-0.82812 -1.46875,-2.73437 h 1.1875 q 1.70312,2.28125 2.53125,4.59375 0.6875,1.98437 0.6875,4.14062 0,2.46875 -0.9375,4.76563 -0.9375,2.29687 -2.28125,4 z"
       id="path95"
       inkscape:connector-curvature="0"
       style="fill:#000000;fill-rule:nonzero" />
    <path
       d="M 45.945348,185.36528 H 268.36468 c 5.8e-4,0 10e-4,2.1e-4 10e-4,6.1e-4 4e-4,3.9e-4 6.1e-4,9.3e-4 6.1e-4,0.001 l -0.002,153.09439 c 0,16.91098 -13.70905,30.62003 -30.62003,30.62003 H 15.325322 v 0 c -0.0012,0 -0.0021,-9.5e-4 -0.0021,-0.002 l 0.0021,-153.09439 v 0 c 0,-16.91098 13.709056,-30.62002 30.620037,-30.62002 z"
       id="path97"
       inkscape:connector-curvature="0"
       style="fill:#cfe2f3;fill-rule:evenodd" />
    <path
       d="M 45.945348,185.36528 H 268.36468 c 5.8e-4,0 10e-4,2.1e-4 10e-4,6.1e-4 4e-4,3.9e-4 6.1e-4,9.3e-4 6.1e-4,0.001 l -0.002,153.09439 c 0,16.91098 -13.70905,30.62003 -30.62003,30.62003 H 15.325322 v 0 c -0.0012,0 -0.0021,-9.5e-4 -0.0021,-0.002 l 0.0021,-153.09439 v 0 c 0,-16.91098 13.709056,-30.62002 30.620037,-30.62002 z"
       id="path99"
       inkscape:connector-curvature="0"
       style="fill-rule:evenodd;stroke:#000000;stroke-width:1;stroke-linecap:butt;stroke-linejoin:round" />
    <path
       d="M 32.514287,192.34691 H 177.71114 v 42.01574 H 32.514287 Z"
       id="path101"
       inkscape:connector-curvature="0"
       style="fill:#000000;fill-opacity:0;fill-rule:evenodd" />
    <path
       d="m 46.358037,219.26688 v -11.78125 h -4.40625 v -1.57813 h 10.578125 v 1.57813 h -4.40625 v 11.78125 z m 7.786606,0 V 205.9075 h 1.640625 v 4.79688 q 1.140625,-1.32813 2.890625,-1.32813 1.078125,0 1.859375,0.42188 0.796875,0.42187 1.140625,1.17187 0.34375,0.75 0.34375,2.17188 v 6.125 h -1.640625 v -6.125 q 0,-1.23438 -0.53125,-1.79688 -0.53125,-0.5625 -1.515625,-0.5625 -0.71875,0 -1.359375,0.39063 -0.640625,0.375 -0.921875,1.01562 -0.265625,0.64063 -0.265625,1.78125 v 5.29688 z m 10.360092,0 V 209.595 h 1.468754 v 1.46875 q 0.5625,-1.03125 1.03125,-1.35937 0.484375,-0.32813 1.0625,-0.32813 0.828125,0 1.6875,0.53125 l -0.5625,1.51563 q -0.609375,-0.35938 -1.203125,-0.35938 -0.546875,0 -0.96875,0.32813 -0.421875,0.32812 -0.609375,0.89062 -0.28125,0.875 -0.28125,1.92188 v 5.0625 z m 12.853306,-3.10938 1.6875,0.20313 q -0.40625,1.48437 -1.484375,2.3125 -1.078125,0.8125 -2.765625,0.8125 -2.125,0 -3.375,-1.29688 -1.234375,-1.3125 -1.234375,-3.67187 0,-2.45313 1.25,-3.79688 1.265625,-1.34375 3.265625,-1.34375 1.9375,0 3.15625,1.32813 1.234375,1.3125 1.234375,3.70312 0,0.15625 0,0.4375 h -7.21875 q 0.09375,1.59375 0.90625,2.45313 0.8125,0.84375 2.015625,0.84375 0.90625,0 1.546875,-0.46875 0.640625,-0.48438 1.015625,-1.51563 z m -5.390625,-2.65625 h 5.40625 q -0.109375,-1.21875 -0.625,-1.82812 -0.78125,-0.95313 -2.03125,-0.95313 -1.125,0 -1.90625,0.76563 -0.765625,0.75 -0.84375,2.01562 z m 15.453842,4.57813 q -0.921875,0.76562 -1.765625,1.09375 -0.828125,0.3125 -1.796875,0.3125 -1.59375,0 -2.453125,-0.78125 -0.859375,-0.78125 -0.859375,-1.98438 0,-0.71875 0.328125,-1.29687 0.328125,-0.59375 0.84375,-0.9375 0.53125,-0.35938 1.1875,-0.54688 0.46875,-0.125 1.453125,-0.25 1.984375,-0.23437 2.921875,-0.5625 0.01563,-0.34375 0.01563,-0.42187 0,-1 -0.46875,-1.42188 -0.625,-0.54687 -1.875,-0.54687 -1.15625,0 -1.703125,0.40625 -0.546875,0.40625 -0.8125,1.42187 l -1.60938,-0.21875 q 0.21875,-1.01562 0.71875,-1.64062 0.5,-0.64063 1.453125,-0.98438 0.953125,-0.34375 2.1875,-0.34375 1.25,0 2.015625,0.29688 0.78125,0.28125 1.140625,0.73437 0.375,0.4375 0.515625,1.10938 0.07813,0.42187 0.07813,1.51562 v 2.1875 q 0,2.28125 0.109375,2.89063 0.109375,0.59375 0.40625,1.15625 h -1.703125 q -0.265625,-0.51563 -0.328125,-1.1875 z m -0.140625,-3.67188 q -0.890625,0.375 -2.671875,0.625 -1.015625,0.14063 -1.4375,0.32813 -0.421875,0.1875 -0.65625,0.53125 -0.21875,0.34375 -0.21875,0.78125 0,0.65625 0.5,1.09375 0.5,0.4375 1.453125,0.4375 0.9375,0 1.671875,-0.40625 0.75,-0.42188 1.09375,-1.14063 0.265625,-0.5625 0.265625,-1.64062 z m 10.469467,4.85938 v -1.21875 q -0.90625,1.4375 -2.703125,1.4375 -1.15625,0 -2.125,-0.64063 -0.96875,-0.64062 -1.5,-1.78125 -0.53125,-1.14062 -0.53125,-2.625 0,-1.45312 0.484375,-2.625 0.484375,-1.1875 1.4375,-1.8125 0.96875,-0.625 2.171875,-0.625 0.875,0 1.546875,0.375 0.6875,0.35938 1.109375,0.95313 v -4.79688 h 1.640625 v 13.35938 z m -5.171875,-4.82813 q 0,1.85938 0.78125,2.78125 0.78125,0.92188 1.84375,0.92188 1.078125,0 1.828125,-0.875 0.75,-0.89063 0.75,-2.6875 0,-1.98438 -0.765625,-2.90625 -0.765625,-0.9375 -1.890625,-0.9375 -1.078125,0 -1.8125,0.89062 -0.734375,0.89063 -0.734375,2.8125 z m 14.012145,-1.76562 q 0,-2.35938 0.48438,-3.79688 0.48437,-1.45312 1.4375,-2.23437 0.96875,-0.78125 2.42187,-0.78125 1.07813,0 1.89063,0.4375 0.8125,0.42187 1.32812,1.25 0.53125,0.8125 0.82813,1.98437 0.3125,1.15625 0.3125,3.14063 0,2.35937 -0.48438,3.8125 -0.48437,1.4375 -1.45312,2.23437 -0.95313,0.78125 -2.42188,0.78125 -1.92187,0 -3.03125,-1.39062 -1.3125,-1.67188 -1.3125,-5.4375 z m 1.67188,0 q 0,3.29687 0.76562,4.39062 0.78125,1.07813 1.90625,1.07813 1.14063,0 1.90625,-1.09375 0.76563,-1.09375 0.76563,-4.375 0,-3.29688 -0.76563,-4.375 -0.76562,-1.07813 -1.92187,-1.07813 -1.125,0 -1.79688,0.95313 -0.85937,1.21875 -0.85937,4.5 z"
       id="path103"
       inkscape:connector-curvature="0"
       style="fill:#000000;fill-rule:nonzero" />
    <path
       d="m 642.30174,218.78261 h 24.88184 v 133.32281 h -24.88184 z"
       id="path105"
       inkscape:connector-curvature="0"
       style="fill:#000000;fill-opacity:0;fill-rule:evenodd" />
    <path
       d="m 652.83514,234.23381 v -5.32813 h 2.01563 q 0.53125,0 0.8125,0.0469 0.39062,0.0625 0.65625,0.25 0.26562,0.1875 0.42187,0.51562 0.15625,0.32813 0.15625,0.71875 0,0.6875 -0.4375,1.15625 -0.42187,0.46875 -1.54687,0.46875 h -1.375 v 2.17188 z m 0.70313,-2.79688 h 1.375 q 0.6875,0 0.96875,-0.25 0.29687,-0.26562 0.29687,-0.71875 0,-0.34375 -0.17187,-0.57812 -0.17188,-0.23438 -0.45313,-0.3125 -0.17187,-0.0469 -0.65625,-0.0469 h -1.35937 z"
       id="path107"
       inkscape:connector-curvature="0"
       style="fill:#000000;fill-rule:nonzero" />
    <path
       d="m 655.81074,241.04781 0.67188,0.0937 q -0.15625,0.59375 -0.59375,0.92187 -0.4375,0.32813 -1.10938,0.32813 -0.84375,0 -1.34375,-0.51563 -0.5,-0.53125 -0.5,-1.48437 0,-0.96875 0.5,-1.5 0.51563,-0.54688 1.3125,-0.54688 0.78125,0 1.26563,0.53125 0.48437,0.53125 0.48437,1.48438 0,0.0625 0,0.17187 h -2.875 q 0.0312,0.64063 0.35938,0.98438 0.32812,0.32812 0.8125,0.32812 0.35937,0 0.60937,-0.1875 0.25,-0.1875 0.40625,-0.60937 z m -2.15625,-1.04688 h 2.15625 q -0.0469,-0.5 -0.25,-0.73437 -0.3125,-0.375 -0.8125,-0.375 -0.4375,0 -0.75,0.29687 -0.3125,0.29688 -0.34375,0.8125 z"
       id="path109"
       inkscape:connector-curvature="0"
       style="fill:#000000;fill-rule:nonzero" />
    <path
       d="m 653.1545,250.3618 v -3.85938 h 0.59375 v 0.54688 q 0.42188,-0.64063 1.23438,-0.64063 0.34375,0 0.64062,0.125 0.29688,0.125 0.4375,0.32813 0.14063,0.20312 0.20313,0.48437 0.0312,0.1875 0.0312,0.64063 v 2.375 h -0.64063 v -2.34375 q 0,-0.40625 -0.0781,-0.59375 -0.0781,-0.20313 -0.28125,-0.32813 -0.1875,-0.125 -0.45313,-0.125 -0.42187,0 -0.73437,0.26563 -0.29688,0.26562 -0.29688,1.01562 v 2.10938 z"
       id="path111"
       inkscape:connector-curvature="0"
       style="fill:#000000;fill-rule:nonzero" />
    <path
       d="m 654.84218,258.4258 v -0.48438 q -0.375,0.57813 -1.07812,0.57813 -0.46875,0 -0.85938,-0.25 -0.375,-0.26563 -0.59375,-0.71875 -0.21875,-0.45313 -0.21875,-1.04688 0,-0.57812 0.1875,-1.04687 0.20313,-0.48438 0.57813,-0.73438 0.39062,-0.25 0.875,-0.25 0.34375,0 0.60937,0.15625 0.28125,0.14063 0.45313,0.375 v -1.90625 h 0.65625 v 5.32813 z m -2.07812,-1.92188 q 0,0.73438 0.3125,1.10938 0.3125,0.35937 0.75,0.35937 0.42187,0 0.71875,-0.34375 0.3125,-0.35937 0.3125,-1.07812 0,-0.79688 -0.3125,-1.15625 -0.3125,-0.375 -0.75,-0.375 -0.4375,0 -0.73438,0.35937 -0.29687,0.34375 -0.29687,1.125 z m 3.7232,-2.65625 v -0.75 h 0.65625 v 0.75 z m 0,4.57813 v -3.85938 h 0.65625 v 3.85938 z"
       id="path113"
       inkscape:connector-curvature="0"
       style="fill:#000000;fill-rule:nonzero" />
    <path
       d="m 653.1545,266.48978 v -3.85938 h 0.59375 v 0.54688 q 0.42188,-0.64063 1.23438,-0.64063 0.34375,0 0.64062,0.125 0.29688,0.125 0.4375,0.32813 0.14063,0.20312 0.20313,0.48437 0.0312,0.1875 0.0312,0.64063 v 2.375 h -0.64063 v -2.34375 q 0,-0.40625 -0.0781,-0.59375 -0.0781,-0.20313 -0.28125,-0.32813 -0.1875,-0.125 -0.45313,-0.125 -0.42187,0 -0.73437,0.26563 -0.29688,0.26562 -0.29688,1.01562 v 2.10938 z"
       id="path115"
       inkscape:connector-curvature="0"
       style="fill:#000000;fill-rule:nonzero" />
    <path
       d="m 653.04514,274.86628 0.64063,0.10937 q 0.0312,0.28125 0.21875,0.42188 0.23437,0.1875 0.65625,0.1875 0.45312,0 0.70312,-0.1875 0.25,-0.1875 0.34375,-0.51563 0.0469,-0.1875 0.0469,-0.82812 -0.4375,0.5 -1.07813,0.5 -0.79687,0 -1.23437,-0.57813 -0.4375,-0.57812 -0.4375,-1.375 0,-0.54687 0.20312,-1.01562 0.20313,-0.46875 0.57813,-0.71875 0.39062,-0.26563 0.90625,-0.26563 0.67187,0 1.125,0.54688 v -0.45313 h 0.59375 v 3.32813 q 0,0.90625 -0.1875,1.28125 -0.17188,0.375 -0.57813,0.59375 -0.39062,0.21875 -0.96875,0.21875 -0.70312,0 -1.125,-0.3125 -0.42187,-0.29688 -0.40625,-0.9375 z m 0.53125,-2.3125 q 0,0.76562 0.29688,1.10937 0.3125,0.34375 0.76562,0.34375 0.45313,0 0.75,-0.34375 0.3125,-0.34375 0.3125,-1.09375 0,-0.70312 -0.3125,-1.0625 -0.3125,-0.35937 -0.75,-0.35937 -0.4375,0 -0.75,0.35937 -0.3125,0.34375 -0.3125,1.04688 z"
       id="path117"
       inkscape:connector-curvature="0"
       style="fill:#000000;fill-rule:nonzero" />
    <path
       d="m 652.24774,290.68178 v -5.32813 h 3.59375 v 0.625 h -2.89062 v 1.65625 h 2.51562 v 0.625 h -2.51562 v 2.42188 z m 4.4433,-4.57813 v -0.75 h 0.65625 v 0.75 z m 0,4.57813 v -3.85938 h 0.65625 v 3.85938 z"
       id="path119"
       inkscape:connector-curvature="0"
       style="fill:#000000;fill-rule:nonzero" />
    <path
       d="m 653.76384,298.7458 h -0.60937 v -5.32813 h 0.65625 v 1.89063 q 0.42187,-0.51563 1.0625,-0.51563 0.35937,0 0.67187,0.14063 0.3125,0.14062 0.51563,0.40625 0.21875,0.26562 0.32812,0.64062 0.125,0.35938 0.125,0.78125 0,0.98438 -0.5,1.53125 -0.48437,0.54688 -1.17187,0.54688 -0.6875,0 -1.07813,-0.57813 z m 0,-1.96875 q 0,0.70312 0.1875,1.01562 0.3125,0.5 0.82813,0.5 0.4375,0 0.75,-0.375 0.3125,-0.375 0.3125,-1.10937 0,-0.75 -0.3125,-1.10938 -0.29688,-0.35937 -0.71875,-0.35937 -0.42188,0 -0.73438,0.375 -0.3125,0.35937 -0.3125,1.0625 z"
       id="path121"
       inkscape:connector-curvature="0"
       style="fill:#000000;fill-rule:nonzero" />
    <path
       d="m 654.56974,305.5598 0.67188,0.0937 q -0.15625,0.59375 -0.59375,0.92187 -0.4375,0.32813 -1.10938,0.32813 -0.84375,0 -1.34375,-0.51563 -0.5,-0.53125 -0.5,-1.48437 0,-0.96875 0.5,-1.5 0.51563,-0.54688 1.3125,-0.54688 0.78125,0 1.26563,0.53125 0.48437,0.53125 0.48437,1.48438 0,0.0625 0,0.17187 h -2.875 q 0.0312,0.64063 0.35938,0.98438 0.32812,0.32812 0.8125,0.32812 0.35937,0 0.60937,-0.1875 0.25,-0.1875 0.40625,-0.60937 z m -2.15625,-1.04688 h 2.15625 q -0.0469,-0.5 -0.25,-0.73437 -0.3125,-0.375 -0.8125,-0.375 -0.4375,0 -0.75,0.29687 -0.3125,0.29688 -0.34375,0.8125 z m 3.64508,2.29688 v -3.85938 h 0.59375 v 0.57813 q 0.21875,-0.40625 0.40625,-0.53125 0.20313,-0.14063 0.42188,-0.14063 0.32812,0 0.67187,0.21875 l -0.21875,0.59375 q -0.23437,-0.14062 -0.48437,-0.14062 -0.21875,0 -0.39063,0.14062 -0.15625,0.125 -0.23437,0.35938 -0.10938,0.34375 -0.10938,0.76562 v 2.01563 z"
       id="path123"
       inkscape:connector-curvature="0"
       style="fill:#000000;fill-rule:nonzero" />
    <path
       d="m 653.11374,313.71754 0.64063,-0.0937 q 0.0625,0.39062 0.3125,0.59375 0.25,0.20312 0.6875,0.20312 0.45312,0 0.67187,-0.17187 0.21875,-0.1875 0.21875,-0.4375 0,-0.21875 -0.1875,-0.35938 -0.14062,-0.0781 -0.67187,-0.21875 -0.71875,-0.17187 -1,-0.29687 -0.28125,-0.14063 -0.42188,-0.375 -0.14062,-0.25 -0.14062,-0.53125 0,-0.25 0.10937,-0.46875 0.125,-0.21875 0.32813,-0.375 0.15625,-0.10938 0.40625,-0.1875 0.26562,-0.0781 0.57812,-0.0781 0.45313,0 0.79688,0.14063 0.34375,0.125 0.5,0.34375 0.17187,0.21875 0.23437,0.59375 l -0.64062,0.0937 q -0.0469,-0.29688 -0.26563,-0.45313 -0.20312,-0.17187 -0.57812,-0.17187 -0.45313,0 -0.65625,0.15625 -0.1875,0.14062 -0.1875,0.32812 0,0.14063 0.0781,0.23438 0.0781,0.10937 0.25,0.17187 0.10938,0.0469 0.57813,0.17188 0.70312,0.1875 0.96875,0.3125 0.28125,0.10937 0.4375,0.34375 0.15625,0.21875 0.15625,0.54687 0,0.32813 -0.1875,0.625 -0.1875,0.28125 -0.54688,0.45313 -0.35937,0.15625 -0.82812,0.15625 -0.75,0 -1.14063,-0.3125 -0.39062,-0.3125 -0.5,-0.9375 z"
       id="path125"
       inkscape:connector-curvature="0"
       style="fill:#000000;fill-rule:nonzero" />
    <path
       d="M 78.144211,234.36265 H 233.4198 v 42.01574 H 78.144211 Z"
       id="path127"
       inkscape:connector-curvature="0"
       style="fill:#000000;fill-opacity:0;fill-rule:evenodd" />
    <path
       d="M 78.144211,234.36265 H 233.4198 v 42.01574 H 78.144211 Z"
       id="path129"
       inkscape:connector-curvature="0"
       style="fill-rule:evenodd;stroke:#000000;stroke-width:1;stroke-linecap:butt;stroke-linejoin:round;stroke-dasharray:4, 3" />
    <path
       d="m 87.987961,256.98576 1.65625,-0.14063 q 0.125,1 0.546875,1.64063 0.4375,0.64062 1.34375,1.04687 0.921875,0.39063 2.0625,0.39063 1,0 1.78125,-0.29688 0.78125,-0.29687 1.15625,-0.8125 0.375,-0.53125 0.375,-1.15625 0,-0.625 -0.375,-1.09375 -0.359375,-0.46875 -1.1875,-0.79687 -0.546875,-0.20313 -2.390625,-0.64063 -1.828125,-0.45312 -2.5625,-0.84375 -0.96875,-0.5 -1.4375,-1.23437 -0.46875,-0.75 -0.46875,-1.67188 0,-1 0.578125,-1.875 0.578125,-0.89062 1.671875,-1.34375 1.109375,-0.45312 2.453125,-0.45312 1.484375,0 2.609375,0.48437 1.140625,0.46875 1.75,1.40625 0.609375,0.92188 0.65625,2.09375 l -1.6875,0.125 q -0.140625,-1.26562 -0.9375,-1.90625 -0.78125,-0.65625 -2.3125,-0.65625 -1.609375,0 -2.34375,0.59375 -0.734375,0.59375 -0.734375,1.42188 0,0.71875 0.53125,1.17187 0.5,0.46875 2.65625,0.96875 2.15625,0.48438 2.953125,0.84375 1.171875,0.53125 1.71875,1.35938 0.5625,0.82812 0.5625,1.90625 0,1.0625 -0.609375,2.01562 -0.609375,0.9375 -1.75,1.46875 -1.140625,0.51563 -2.578125,0.51563 -1.8125,0 -3.046875,-0.53125 -1.21875,-0.53125 -1.921875,-1.59375 -0.6875,-1.0625 -0.71875,-2.40625 z m 19.146699,0.75 1.60937,0.21875 q -0.26562,1.65625 -1.35937,2.60937 -1.07813,0.9375 -2.67188,0.9375 -1.98437,0 -3.1875,-1.29687 -1.20312,-1.29688 -1.20312,-3.71875 0,-1.57813 0.51562,-2.75 0.51563,-1.17188 1.57813,-1.75 1.0625,-0.59375 2.3125,-0.59375 1.57812,0 2.57812,0.79687 1,0.79688 1.28125,2.26563 l -1.59375,0.23437 q -0.23437,-0.96875 -0.8125,-1.45312 -0.57812,-0.5 -1.39062,-0.5 -1.23438,0 -2.01563,0.89062 -0.78125,0.89063 -0.78125,2.8125 0,1.95313 0.75,2.84375 0.75,0.875 1.95313,0.875 0.96875,0 1.60937,-0.59375 0.65625,-0.59375 0.82813,-1.82812 z m 3.01562,3.54687 v -13.35937 h 1.64063 v 4.79687 q 1.14062,-1.32812 2.89062,-1.32812 1.07813,0 1.85938,0.42187 0.79687,0.42188 1.14062,1.17188 0.34375,0.75 0.34375,2.17187 v 6.125 h -1.64062 v -6.125 q 0,-1.23437 -0.53125,-1.79687 -0.53125,-0.5625 -1.51563,-0.5625 -0.71875,0 -1.35937,0.39062 -0.64063,0.375 -0.92188,1.01563 -0.26562,0.64062 -0.26562,1.78125 v 5.29687 z m 17.00072,-3.10937 1.6875,0.20312 q -0.40625,1.48438 -1.48437,2.3125 -1.07813,0.8125 -2.76563,0.8125 -2.125,0 -3.375,-1.29687 -1.23437,-1.3125 -1.23437,-3.67188 0,-2.45312 1.25,-3.79687 1.26562,-1.34375 3.26562,-1.34375 1.9375,0 3.15625,1.32812 1.23438,1.3125 1.23438,3.70313 0,0.15625 0,0.4375 h -7.21875 q 0.0937,1.59375 0.90625,2.45312 0.8125,0.84375 2.01562,0.84375 0.90625,0 1.54688,-0.46875 0.64062,-0.48437 1.01562,-1.51562 z m -5.39062,-2.65625 h 5.40625 q -0.10938,-1.21875 -0.625,-1.82813 -0.78125,-0.95312 -2.03125,-0.95312 -1.125,0 -1.90625,0.76562 -0.76563,0.75 -0.84375,2.01563 z m 15.40696,5.76562 v -1.21875 q -0.90625,1.4375 -2.70312,1.4375 -1.15625,0 -2.125,-0.64062 -0.96875,-0.64063 -1.5,-1.78125 -0.53125,-1.14063 -0.53125,-2.625 0,-1.45313 0.48437,-2.625 0.48438,-1.1875 1.4375,-1.8125 0.96875,-0.625 2.17188,-0.625 0.875,0 1.54687,0.375 0.6875,0.35937 1.10938,0.95312 v -4.79687 h 1.64062 v 13.35937 z m -5.17187,-4.82812 q 0,1.85937 0.78125,2.78125 0.78125,0.92187 1.84375,0.92187 1.07812,0 1.82812,-0.875 0.75,-0.89062 0.75,-2.6875 0,-1.98437 -0.76562,-2.90625 -0.76563,-0.9375 -1.89063,-0.9375 -1.07812,0 -1.8125,0.89063 -0.73437,0.89062 -0.73437,2.8125 z m 15.61009,4.82812 v -1.42187 q -1.125,1.64062 -3.0625,1.64062 -0.85938,0 -1.60938,-0.32812 -0.73437,-0.32813 -1.09375,-0.82813 -0.35937,-0.5 -0.5,-1.21875 -0.10937,-0.46875 -0.10937,-1.53125 v -5.98437 h 1.64062 v 5.35937 q 0,1.28125 0.10938,1.73438 0.15625,0.64062 0.65625,1.01562 0.5,0.375 1.23437,0.375 0.73438,0 1.375,-0.375 0.65625,-0.39062 0.92188,-1.03125 0.26562,-0.65625 0.26562,-1.89062 v -5.1875 h 1.64063 v 9.67187 z m 4.00072,0 v -13.35937 h 1.64062 v 13.35937 z m 10.81669,-3.10937 1.6875,0.20312 q -0.40625,1.48438 -1.48437,2.3125 -1.07813,0.8125 -2.76563,0.8125 -2.125,0 -3.375,-1.29687 -1.23437,-1.3125 -1.23437,-3.67188 0,-2.45312 1.25,-3.79687 1.26562,-1.34375 3.26562,-1.34375 1.9375,0 3.15625,1.32812 1.23438,1.3125 1.23438,3.70313 0,0.15625 0,0.4375 h -7.21875 q 0.0937,1.59375 0.90625,2.45312 0.8125,0.84375 2.01562,0.84375 0.90625,0 1.54688,-0.46875 0.64062,-0.48437 1.01562,-1.51562 z m -5.39062,-2.65625 h 5.40625 q -0.10938,-1.21875 -0.625,-1.82813 -0.78125,-0.95312 -2.03125,-0.95312 -1.125,0 -1.90625,0.76562 -0.76563,0.75 -0.84375,2.01563 z m 8.43821,1.96875 1.59375,-0.21875 q 0.0781,1.53125 0.57813,2.10937 0.51562,0.5625 1.42187,0.5625 0.65625,0 1.14063,-0.29687 0.48437,-0.3125 0.65625,-0.82813 0.1875,-0.53125 0.1875,-1.6875 v -9.20312 h 1.76562 v 9.10937 q 0,1.67188 -0.40625,2.59375 -0.40625,0.92188 -1.28125,1.40625 -0.875,0.48438 -2.0625,0.48438 -1.75,0 -2.6875,-1.01563 -0.9375,-1.01562 -0.90625,-3.01562 z m 9.42188,-1.04688 q 0,-2.6875 1.48437,-3.96875 1.25,-1.07812 3.04688,-1.07812 2,0 3.26562,1.3125 1.26563,1.29687 1.26563,3.60937 0,1.85938 -0.5625,2.9375 -0.5625,1.0625 -1.64063,1.65625 -1.0625,0.59375 -2.32812,0.59375 -2.03125,0 -3.28125,-1.29687 -1.25,-1.3125 -1.25,-3.76563 z m 1.6875,0 q 0,1.85938 0.79687,2.79688 0.8125,0.92187 2.04688,0.92187 1.21875,0 2.03125,-0.92187 0.8125,-0.9375 0.8125,-2.84375 0,-1.79688 -0.8125,-2.71875 -0.8125,-0.92188 -2.03125,-0.92188 -1.23438,0 -2.04688,0.92188 -0.79687,0.90625 -0.79687,2.76562 z m 10.79759,4.84375 h -1.51562 v -13.35937 h 1.64062 v 4.76562 q 1.04688,-1.29687 2.65625,-1.29687 0.89063,0 1.6875,0.35937 0.79688,0.35938 1.3125,1.01563 0.51563,0.64062 0.79688,1.5625 0.29687,0.92187 0.29687,1.96875 0,2.48437 -1.23437,3.84375 -1.21875,1.35937 -2.95313,1.35937 -1.70312,0 -2.6875,-1.4375 z m -0.0156,-4.90625 q 0,1.73438 0.48437,2.51563 0.76563,1.26562 2.09375,1.26562 1.07813,0 1.85938,-0.9375 0.78125,-0.9375 0.78125,-2.78125 0,-1.89062 -0.75,-2.79687 -0.75,-0.90625 -1.82813,-0.90625 -1.0625,0 -1.85937,0.9375 -0.78125,0.9375 -0.78125,2.70312 z m 12.01634,8.82813 q -1.35938,-1.70313 -2.29688,-4 -0.9375,-2.29688 -0.9375,-4.76563 0,-2.15625 0.70313,-4.14062 0.82812,-2.3125 2.53125,-4.59375 h 1.17187 q -1.09375,1.89062 -1.45312,2.70312 -0.54688,1.25 -0.875,2.625 -0.39063,1.70313 -0.39063,3.42188 0,4.375 2.71875,8.75 z m 4.1658,0 h -1.1875 q 2.73438,-4.375 2.73438,-8.75 0,-1.71875 -0.39063,-3.39063 -0.3125,-1.375 -0.875,-2.625 -0.35937,-0.82812 -1.46875,-2.73437 h 1.1875 q 1.70313,2.28125 2.53125,4.59375 0.6875,1.98437 0.6875,4.14062 0,2.46875 -0.9375,4.76563 -0.9375,2.29687 -2.28125,4 z"
       id="path131"
       inkscape:connector-curvature="0"
       style="fill:#000000;fill-rule:nonzero" />
    <path
       d="m 299.7715,76.779967 -144,157.574813"
       id="path133"
       inkscape:connector-curvature="0"
       style="fill:#000000;fill-opacity:0;fill-rule:evenodd" />
    <path
       d="M 299.7715,76.779967 159.81908,229.92565"
       id="path135"
       inkscape:connector-curvature="0"
       style="fill-rule:evenodd;stroke:#000000;stroke-width:1;stroke-linecap:butt;stroke-linejoin:round" />
    <path
       d="m 158.59978,228.81138 -1.84209,4.46423 4.28067,-2.23572 z"
       id="path137"
       inkscape:connector-curvature="0"
       style="fill:#000000;fill-rule:evenodd;stroke:#000000;stroke-width:1;stroke-linecap:butt" />
    <path
       d="m 333.55367,192.34691 h 28.44095 v 30.07873 h -28.44095 z"
       id="path139"
       inkscape:connector-curvature="0"
       style="fill:#6aa84f;fill-rule:evenodd" />
    <path
       d="m 333.55367,192.34691 h 28.44095 v 30.07873 h -28.44095 z"
       id="path141"
       inkscape:connector-curvature="0"
       style="fill-rule:evenodd;stroke:#000000;stroke-width:1;stroke-linecap:butt;stroke-linejoin:round" />
    <path
       d="m 343.64131,210.50938 1.59375,-0.21875 q 0.0781,1.53125 0.57813,2.10937 0.51562,0.5625 1.42187,0.5625 0.65625,0 1.14063,-0.29687 0.48437,-0.3125 0.65625,-0.82813 0.1875,-0.53125 0.1875,-1.6875 v -9.20312 h 1.76562 v 9.10937 q 0,1.67188 -0.40625,2.59375 -0.40625,0.92188 -1.28125,1.40625 -0.875,0.48438 -2.0625,0.48438 -1.75,0 -2.6875,-1.01563 -0.9375,-1.01562 -0.90625,-3.01562 z"
       id="path143"
       inkscape:connector-curvature="0"
       style="fill:#000000;fill-rule:nonzero" />
    <path
       d="m 233.4198,255.37053 100.12599,-48"
       id="path145"
       inkscape:connector-curvature="0"
       style="fill:#000000;fill-opacity:0;fill-rule:evenodd" />
    <path
       d="m 233.4198,255.37053 94.71556,-45.40628"
       id="path147"
       inkscape:connector-curvature="0"
       style="fill-rule:evenodd;stroke:#000000;stroke-width:1;stroke-linecap:butt;stroke-linejoin:round" />
    <path
       d="m 328.84938,211.45368 3.37814,-3.45121 -4.80618,0.47236 z"
       id="path149"
       inkscape:connector-curvature="0"
       style="fill:#000000;fill-rule:evenodd;stroke:#000000;stroke-width:1;stroke-linecap:butt" />
    <path
       d="m 468.82137,281.80623 h 118.80316 v 38.77163 H 468.82137 Z"
       id="path151"
       inkscape:connector-curvature="0"
       style="fill:#000000;fill-opacity:0;fill-rule:evenodd" />
    <path
       d="m 468.82137,281.80623 h 118.80316 v 38.77163 H 468.82137 Z"
       id="path153"
       inkscape:connector-curvature="0"
       style="fill-rule:evenodd;stroke:#000000;stroke-width:1;stroke-linecap:butt;stroke-linejoin:round;stroke-dasharray:4, 3" />
    <path
       d="m 479.05574,306.16621 v -11.45313 h 4.32813 q 1.14062,0 1.73437,0.10938 0.84375,0.14062 1.40625,0.53125 0.57813,0.39062 0.92188,1.10937 0.35937,0.70313 0.35937,1.5625 0,1.45313 -0.9375,2.46875 -0.92187,1.01563 -3.35937,1.01563 h -2.9375 v 4.65625 z m 1.51563,-6.01563 h 2.96875 q 1.46875,0 2.07812,-0.54687 0.625,-0.54688 0.625,-1.53125 0,-0.71875 -0.375,-1.23438 -0.35937,-0.51562 -0.95312,-0.67187 -0.375,-0.10938 -1.40625,-0.10938 h -2.9375 z m 8.96875,6.01563 v -8.29688 h 1.26562 v 1.25 q 0.48438,-0.875 0.89063,-1.15625 0.40625,-0.28125 0.90625,-0.28125 0.70312,0 1.4375,0.45313 l -0.48438,1.29687 q -0.51562,-0.29687 -1.03125,-0.29687 -0.45312,0 -0.82812,0.28125 -0.35938,0.26562 -0.51563,0.76562 -0.23437,0.75 -0.23437,1.64063 v 4.34375 z m 4.8125,-4.15625 q 0,-2.29688 1.28125,-3.40625 1.07812,-0.92188 2.60937,-0.92188 1.71875,0 2.79688,1.125 1.09375,1.10938 1.09375,3.09375 0,1.59375 -0.48438,2.51563 -0.48437,0.92187 -1.40625,1.4375 -0.90625,0.5 -2,0.5 -1.73437,0 -2.8125,-1.10938 -1.07812,-1.125 -1.07812,-3.23437 z m 1.45312,0 q 0,1.59375 0.6875,2.39062 0.70313,0.79688 1.75,0.79688 1.04688,0 1.73438,-0.79688 0.70312,-0.79687 0.70312,-2.4375 0,-1.53125 -0.70312,-2.32812 -0.6875,-0.79688 -1.73438,-0.79688 -1.04687,0 -1.75,0.79688 -0.6875,0.78125 -0.6875,2.375 z m 13.38281,1.10937 1.39063,0.1875 q -0.23438,1.42188 -1.17188,2.23438 -0.92187,0.8125 -2.28125,0.8125 -1.70312,0 -2.75,-1.10938 -1.03125,-1.125 -1.03125,-3.20312 0,-1.34375 0.4375,-2.34375 0.45313,-1.01563 1.35938,-1.51563 0.92187,-0.5 1.98437,-0.5 1.35938,0 2.21875,0.6875 0.85938,0.67188 1.09375,1.9375 l -1.35937,0.20313 q -0.20313,-0.82813 -0.70313,-1.25 -0.48437,-0.42188 -1.1875,-0.42188 -1.0625,0 -1.73437,0.76563 -0.65625,0.75 -0.65625,2.40625 0,1.67187 0.64062,2.4375 0.64063,0.75 1.67188,0.75 0.82812,0 1.375,-0.5 0.5625,-0.51563 0.70312,-1.57813 z m 8.26563,0.375 1.45312,0.17188 q -0.34375,1.28125 -1.28125,1.98437 -0.92187,0.70313 -2.35937,0.70313 -1.82813,0 -2.89063,-1.125 -1.0625,-1.125 -1.0625,-3.14063 0,-2.09375 1.07813,-3.25 1.07812,-1.15625 2.79687,-1.15625 1.65625,0 2.70313,1.14063 1.0625,1.125 1.0625,3.17187 0,0.125 0,0.375 h -6.1875 q 0.0781,1.375 0.76562,2.10938 0.70313,0.71875 1.73438,0.71875 0.78125,0 1.32812,-0.40625 0.54688,-0.40625 0.85938,-1.29688 z m -4.60938,-2.28125 h 4.625 q -0.0937,-1.04687 -0.53125,-1.5625 -0.67187,-0.8125 -1.73437,-0.8125 -0.96875,0 -1.64063,0.65625 -0.65625,0.64063 -0.71875,1.71875 z m 7.27344,2.46875 1.39063,-0.21875 q 0.10937,0.84375 0.64062,1.29688 0.54688,0.4375 1.5,0.4375 0.96875,0 1.4375,-0.39063 0.46875,-0.40625 0.46875,-0.9375 0,-0.46875 -0.40625,-0.75 -0.29687,-0.1875 -1.4375,-0.46875 -1.54687,-0.39062 -2.15625,-0.67187 -0.59375,-0.29688 -0.90625,-0.79688 -0.29687,-0.5 -0.29687,-1.10937 0,-0.5625 0.25,-1.03125 0.25,-0.46875 0.6875,-0.78125 0.32812,-0.25 0.89062,-0.40625 0.57813,-0.17188 1.21875,-0.17188 0.98438,0 1.71875,0.28125 0.73438,0.28125 1.07813,0.76563 0.35937,0.46875 0.5,1.28125 l -1.375,0.1875 q -0.0937,-0.64063 -0.54688,-1 -0.45312,-0.35938 -1.26562,-0.35938 -0.96875,0 -1.39063,0.32813 -0.40625,0.3125 -0.40625,0.73437 0,0.28125 0.17188,0.5 0.17187,0.21875 0.53125,0.375 0.21875,0.0781 1.25,0.35938 1.48437,0.39062 2.07812,0.65625 0.59375,0.25 0.92188,0.73437 0.34375,0.48438 0.34375,1.20313 0,0.70312 -0.42188,1.32812 -0.40625,0.60938 -1.1875,0.95313 -0.76562,0.34375 -1.73437,0.34375 -1.625,0 -2.46875,-0.67188 -0.84375,-0.67187 -1.07813,-2 z m 8,0 1.39063,-0.21875 q 0.10937,0.84375 0.64062,1.29688 0.54688,0.4375 1.5,0.4375 0.96875,0 1.4375,-0.39063 0.46875,-0.40625 0.46875,-0.9375 0,-0.46875 -0.40625,-0.75 -0.29687,-0.1875 -1.4375,-0.46875 -1.54687,-0.39062 -2.15625,-0.67187 -0.59375,-0.29688 -0.90625,-0.79688 -0.29687,-0.5 -0.29687,-1.10937 0,-0.5625 0.25,-1.03125 0.25,-0.46875 0.6875,-0.78125 0.32812,-0.25 0.89062,-0.40625 0.57813,-0.17188 1.21875,-0.17188 0.98438,0 1.71875,0.28125 0.73438,0.28125 1.07813,0.76563 0.35937,0.46875 0.5,1.28125 l -1.375,0.1875 q -0.0937,-0.64063 -0.54688,-1 -0.45312,-0.35938 -1.26562,-0.35938 -0.96875,0 -1.39063,0.32813 -0.40625,0.3125 -0.40625,0.73437 0,0.28125 0.17188,0.5 0.17187,0.21875 0.53125,0.375 0.21875,0.0781 1.25,0.35938 1.48437,0.39062 2.07812,0.65625 0.59375,0.25 0.92188,0.73437 0.34375,0.48438 0.34375,1.20313 0,0.70312 -0.42188,1.32812 -0.40625,0.60938 -1.1875,0.95313 -0.76562,0.34375 -1.73437,0.34375 -1.625,0 -2.46875,-0.67188 -0.84375,-0.67187 -1.07813,-2 z m 7.96875,-0.76562 1.35938,-0.1875 q 0.0625,1.3125 0.5,1.79687 0.4375,0.48438 1.20312,0.48438 0.57813,0 0.98438,-0.26563 0.42187,-0.26562 0.57812,-0.70312 0.15625,-0.45313 0.15625,-1.4375 v -7.89063 h 1.51563 v 7.79688 q 0,1.4375 -0.35938,2.23437 -0.34375,0.78125 -1.09375,1.20313 -0.75,0.42187 -1.76562,0.42187 -1.51563,0 -2.3125,-0.875 -0.79688,-0.875 -0.76563,-2.57812 z m 8.0625,-0.90625 q 0,-2.29688 1.28125,-3.40625 1.07813,-0.92188 2.60938,-0.92188 1.71875,0 2.79687,1.125 1.09375,1.10938 1.09375,3.09375 0,1.59375 -0.48437,2.51563 -0.48438,0.92187 -1.40625,1.4375 -0.90625,0.5 -2,0.5 -1.73438,0 -2.8125,-1.10938 -1.07813,-1.125 -1.07813,-3.23437 z m 1.45313,0 q 0,1.59375 0.6875,2.39062 0.70312,0.79688 1.75,0.79688 1.04687,0 1.73437,-0.79688 0.70313,-0.79687 0.70313,-2.4375 0,-1.53125 -0.70313,-2.32812 -0.6875,-0.79688 -1.73437,-0.79688 -1.04688,0 -1.75,0.79688 -0.6875,0.78125 -0.6875,2.375 z m 9.27343,4.15625 h -1.3125 v -11.45313 h 1.40625 v 4.07813 q 0.89063,-1.10938 2.28125,-1.10938 0.76563,0 1.4375,0.3125 0.6875,0.29688 1.125,0.85938 0.45313,0.5625 0.70313,1.35937 0.25,0.78125 0.25,1.67188 0,2.14062 -1.0625,3.3125 -1.04688,1.15625 -2.53125,1.15625 -1.46875,0 -2.29688,-1.23438 z m -0.0156,-4.21875 q 0,1.5 0.40625,2.15625 0.65625,1.09375 1.79687,1.09375 0.92188,0 1.59375,-0.79688 0.67188,-0.8125 0.67188,-2.39062 0,-1.625 -0.65625,-2.39063 -0.64063,-0.78125 -1.54688,-0.78125 -0.92187,0 -1.59375,0.79688 -0.67187,0.79687 -0.67187,2.3125 z m 10.30469,7.59375 q -1.17188,-1.46875 -1.98438,-3.4375 -0.79687,-1.98438 -0.79687,-4.09375 0,-1.85938 0.60937,-3.5625 0.70313,-1.96875 2.17188,-3.9375 h 1 q -0.9375,1.625 -1.25,2.32812 -0.46875,1.07813 -0.75,2.25 -0.32813,1.45313 -0.32813,2.9375 0,3.75 2.32813,7.51563 z m 3.5625,0 h -1.01563 q 2.34375,-3.76563 2.34375,-7.51563 0,-1.46875 -0.34375,-2.92187 -0.26562,-1.17188 -0.73437,-2.25 -0.3125,-0.70313 -1.26563,-2.34375 h 1.01563 q 1.46875,1.96875 2.17187,3.9375 0.59375,1.70312 0.59375,3.5625 0,2.10937 -0.8125,4.09375 -0.79687,1.96875 -1.95312,3.4375 z"
       id="path155"
       inkscape:connector-curvature="0"
       style="fill:#000000;fill-rule:nonzero" />
    <path
       d="m 597.40404,236.85348 h 36.44879 v 99.8504 h -36.44879 z"
       id="path157"
       inkscape:connector-curvature="0"
       style="fill:#000000;fill-opacity:0;fill-rule:evenodd" />
    <path
       d="m 633.85284,236.85348 12.1496,-12.1496 v 99.85037 l -12.1496,12.14963 z"
       id="path159"
       inkscape:connector-curvature="0"
       style="fill:#000000;fill-opacity:0;fill-rule:evenodd" />
    <path
       d="m 597.40404,236.85348 12.1496,-12.1496 h 36.44879 l -12.1496,12.1496 z"
       id="path161"
       inkscape:connector-curvature="0"
       style="fill:#000000;fill-opacity:0;fill-rule:evenodd" />
    <path
       d="m 597.40404,236.85348 12.1496,-12.1496 h 36.44879 v 99.85037 l -12.1496,12.14963 h -36.44879 z m 0,0 h 36.44879 l 12.1496,-12.1496 m -12.1496,12.1496 v 99.8504"
       id="path163"
       inkscape:connector-curvature="0"
       style="fill:#000000;fill-opacity:0;fill-rule:evenodd" />
    <path
       d="m 633.85284,236.85348 12.1496,-12.1496 v 99.85037 l -12.1496,12.14963 z"
       id="path165"
       inkscape:connector-curvature="0"
       style="fill:#000000;fill-opacity:0.2;fill-rule:evenodd" />
    <path
       d="m 597.40404,236.85348 12.1496,-12.1496 h 36.44879 l -12.1496,12.1496 z"
       id="path167"
       inkscape:connector-curvature="0"
       style="fill:#ffffff;fill-opacity:0.2;fill-rule:evenodd" />
    <path
       d="m 597.40404,236.85348 12.1496,-12.1496 h 36.44879 v 99.85037 l -12.1496,12.14963 h -36.44879 z m 0,0 h 36.44879 l 12.1496,-12.1496 m -12.1496,12.1496 v 99.8504"
       id="path169"
       inkscape:connector-curvature="0"
       style="fill-rule:evenodd;stroke:#000000;stroke-width:1;stroke-linecap:butt;stroke-linejoin:round" />
    <path
       d="m 388.92647,50.262913 h 35.27023 c 10e-5,0 1.9e-4,3.1e-5 2.5e-4,1e-4 6e-5,6.1e-5 9e-5,1.45e-4 9e-5,2.36e-4 l -3.4e-4,25.065178 c 0,2.768723 -2.2445,5.013229 -5.01321,5.013229 h -35.27026 v 0 c -1.9e-4,0 -3.4e-4,-1.52e-4 -3.4e-4,-3.35e-4 l 3.4e-4,-25.065186 v 0 c 0,-2.76873 2.2445,-5.013222 5.01324,-5.013222 z"
       id="path171"
       inkscape:connector-curvature="0"
       style="fill:#dd7e6b;fill-rule:evenodd" />
    <path
       d="m 388.92647,50.262913 h 35.27023 c 10e-5,0 1.9e-4,3.1e-5 2.5e-4,1e-4 6e-5,6.1e-5 9e-5,1.45e-4 9e-5,2.36e-4 l -3.4e-4,25.065178 c 0,2.768723 -2.2445,5.013229 -5.01321,5.013229 h -35.27026 v 0 c -1.9e-4,0 -3.4e-4,-1.52e-4 -3.4e-4,-3.35e-4 l 3.4e-4,-25.065186 v 0 c 0,-2.76873 2.2445,-5.013222 5.01324,-5.013222 z"
       id="path173"
       inkscape:connector-curvature="0"
       style="fill-rule:evenodd;stroke:#000000;stroke-width:1;stroke-linecap:butt;stroke-linejoin:round" />
    <path
       d="M 399.88824,72.222277 V 58.86291 h 9.01563 v 1.578125 h -7.25 v 4.140618 h 6.26562 v 1.578125 h -6.26562 v 6.0625 z"
       id="path175"
       inkscape:connector-curvature="0"
       style="fill:#000000;fill-rule:nonzero" />
    <path
       d="m 442.95619,50.262913 h 35.27026 c 10e-5,0 1.6e-4,3.1e-5 2.5e-4,1e-4 6e-5,6.1e-5 9e-5,1.45e-4 9e-5,2.36e-4 l -3.4e-4,25.065178 c 0,2.768723 -2.2445,5.013229 -5.01324,5.013229 h -35.27023 v 0 c -1.9e-4,0 -3.4e-4,-1.52e-4 -3.4e-4,-3.35e-4 l 3.4e-4,-25.065186 v 0 c 0,-2.76873 2.2445,-5.013222 5.01321,-5.013222 z"
       id="path177"
       inkscape:connector-curvature="0"
       style="fill:#dd7e6b;fill-rule:evenodd" />
    <path
       d="m 442.95619,50.262913 h 35.27026 c 10e-5,0 1.6e-4,3.1e-5 2.5e-4,1e-4 6e-5,6.1e-5 9e-5,1.45e-4 9e-5,2.36e-4 l -3.4e-4,25.065178 c 0,2.768723 -2.2445,5.013229 -5.01324,5.013229 h -35.27023 v 0 c -1.9e-4,0 -3.4e-4,-1.52e-4 -3.4e-4,-3.35e-4 l 3.4e-4,-25.065186 v 0 c 0,-2.76873 2.2445,-5.013222 5.01321,-5.013222 z"
       id="path179"
       inkscape:connector-curvature="0"
       style="fill-rule:evenodd;stroke:#000000;stroke-width:1;stroke-linecap:butt;stroke-linejoin:round" />
    <path
       d="M 453.91798,72.222277 V 58.86291 h 9.01563 v 1.578125 h -7.25 v 4.140618 h 6.26562 v 1.578125 h -6.26562 v 6.0625 z"
       id="path181"
       inkscape:connector-curvature="0"
       style="fill:#000000;fill-rule:nonzero" />
    <path
       d="m 496.98594,50.262913 h 35.27023 c 1.3e-4,0 1.9e-4,3.1e-5 2.5e-4,1e-4 6e-5,6.1e-5 1.2e-4,1.45e-4 1.2e-4,2.36e-4 l -3.7e-4,25.065178 c 0,2.768723 -2.2445,5.013229 -5.01318,5.013229 h -35.27026 v 0 c -1.9e-4,0 -3.4e-4,-1.52e-4 -3.4e-4,-3.35e-4 l 3.4e-4,-25.065186 v 0 c 0,-2.76873 2.2445,-5.013222 5.01321,-5.013222 z"
       id="path183"
       inkscape:connector-curvature="0"
       style="fill:#dd7e6b;fill-rule:evenodd" />
    <path
       d="m 496.98594,50.262913 h 35.27023 c 1.3e-4,0 1.9e-4,3.1e-5 2.5e-4,1e-4 6e-5,6.1e-5 1.2e-4,1.45e-4 1.2e-4,2.36e-4 l -3.7e-4,25.065178 c 0,2.768723 -2.2445,5.013229 -5.01318,5.013229 h -35.27026 v 0 c -1.9e-4,0 -3.4e-4,-1.52e-4 -3.4e-4,-3.35e-4 l 3.4e-4,-25.065186 v 0 c 0,-2.76873 2.2445,-5.013222 5.01321,-5.013222 z"
       id="path185"
       inkscape:connector-curvature="0"
       style="fill-rule:evenodd;stroke:#000000;stroke-width:1;stroke-linecap:butt;stroke-linejoin:round" />
    <path
       d="M 507.94771,72.222277 V 58.86291 h 9.01563 v 1.578125 h -7.25 v 4.140618 h 6.26562 v 1.578125 h -6.26562 v 6.0625 z"
       id="path187"
       inkscape:connector-curvature="0"
       style="fill:#000000;fill-rule:nonzero" />
    <path
       d="m 551.0157,50.262913 h 35.27026 c 7e-5,0 1.3e-4,3.1e-5 1.9e-4,1e-4 1.2e-4,6.1e-5 1.2e-4,1.45e-4 1.2e-4,2.36e-4 l -3.1e-4,25.065178 c 0,2.768723 -2.2445,5.013229 -5.01324,5.013229 h -35.27026 v 0 c -1.9e-4,0 -3.1e-4,-1.52e-4 -3.1e-4,-3.35e-4 l 3.1e-4,-25.065186 v 0 c 0,-2.76873 2.2445,-5.013222 5.01324,-5.013222 z"
       id="path189"
       inkscape:connector-curvature="0"
       style="fill:#dd7e6b;fill-rule:evenodd" />
    <path
       d="m 551.0157,50.262913 h 35.27026 c 7e-5,0 1.3e-4,3.1e-5 1.9e-4,1e-4 1.2e-4,6.1e-5 1.2e-4,1.45e-4 1.2e-4,2.36e-4 l -3.1e-4,25.065178 c 0,2.768723 -2.2445,5.013229 -5.01324,5.013229 h -35.27026 v 0 c -1.9e-4,0 -3.1e-4,-1.52e-4 -3.1e-4,-3.35e-4 l 3.1e-4,-25.065186 v 0 c 0,-2.76873 2.2445,-5.013222 5.01324,-5.013222 z"
       id="path191"
       inkscape:connector-curvature="0"
       style="fill-rule:evenodd;stroke:#000000;stroke-width:1;stroke-linecap:butt;stroke-linejoin:round" />
    <path
       d="M 561.97749,72.222277 V 58.86291 h 9.01563 v 1.578125 h -7.25 v 4.140618 h 6.26562 v 1.578125 h -6.26562 v 6.0625 z"
       id="path193"
       inkscape:connector-curvature="0"
       style="fill:#000000;fill-rule:nonzero" />
  </g>
</svg>
